<?xml version="1.0" encoding="utf-8" standalone="no"?>
<!DOCTYPE svg PUBLIC "-//W3C//DTD SVG 1.1//EN"
  "http://www.w3.org/Graphics/SVG/1.1/DTD/svg11.dtd">
<!-- Created with matplotlib (http://matplotlib.org/) -->
<svg height="345.6pt" version="1.1" viewBox="0 0 460.8 345.6" width="460.8pt" xmlns="http://www.w3.org/2000/svg" xmlns:xlink="http://www.w3.org/1999/xlink">
 <defs>
  <style type="text/css">
*{stroke-linecap:butt;stroke-linejoin:round;}
  </style>
 </defs>
 <g id="figure_1">
  <g id="patch_1">
   <path d="M 0 345.6 
L 460.8 345.6 
L 460.8 0 
L 0 0 
z
" style="fill:#ffffff;"/>
  </g>
  <g id="axes_1">
   <g id="patch_2">
    <path clip-path="url(#p1657639427)" d="M 429.985652 291.575652 
L 419.489043 295.194957 
L 419.489043 295.194957 
L 419.489043 295.194957 
L 419.489043 287.956348 
L 419.489043 287.956348 
L 419.489043 287.956348 
z
" style="stroke:#000000;stroke-linejoin:miter;"/>
   </g>
   <g id="patch_3">
    <path clip-path="url(#p1657639427)" d="M 69.602087 40.637217 
L 73.975674 50.288696 
L 73.100957 50.288696 
L 73.100957 50.288696 
L 66.103217 50.288696 
L 66.103217 50.288696 
L 65.2285 50.288696 
z
" style="stroke:#000000;stroke-linejoin:miter;"/>
   </g>
   <g id="line2d_1">
    <path clip-path="url(#p1657639427)" d="M 69.602087 195.06087 
L 75.532374 191.633651 
L 81.462662 188.25462 
L 87.392949 184.971283 
L 93.323237 181.829805 
L 99.253524 178.874355 
L 105.183811 176.146485 
L 111.114099 173.684551 
L 117.044386 171.523165 
L 122.974674 169.692717 
L 128.904961 168.218944 
L 134.835248 167.122565 
L 140.765536 166.418996 
L 146.695823 166.11813 
L 152.626111 166.224196 
L 158.556398 166.735703 
L 164.486685 167.645459 
L 170.416973 168.940674 
L 176.34726 170.603136 
L 182.277548 172.609471 
L 188.207835 174.931472 
L 194.138122 177.53649 
L 200.06841 180.387899 
L 205.998697 183.445608 
L 211.928985 186.666628 
L 217.859272 190.005669 
L 223.789559 193.415786 
L 229.719847 196.849033 
L 235.650134 200.257139 
L 241.580422 203.592185 
L 247.510709 206.807282 
L 253.440996 209.857225 
L 259.371284 212.699133 
L 265.301571 215.293049 
L 271.231859 217.602502 
L 277.162146 219.595021 
L 283.092433 221.242593 
L 289.022721 222.522052 
L 294.953008 223.415409 
L 300.883296 223.910104 
L 306.813583 223.999181 
L 312.74387 223.681388 
L 318.674158 222.961193 
L 324.604445 221.848723 
L 330.534732 220.359617 
L 336.46502 218.514813 
L 342.395307 216.340249 
L 348.325595 213.866499 
L 354.255882 211.128343 
L 360.186169 208.16428 
L 366.116457 205.015984 
L 372.046744 201.72772 
L 377.977032 198.345721 
L 383.907319 194.917537 
L 389.837606 191.491369 
L 395.767894 188.115387 
L 401.698181 184.837058 
L 407.628469 181.702475 
L 413.558756 178.75571 
L 419.489043 176.038194 
" style="fill:none;stroke:#0000ff;stroke-linecap:square;stroke-width:3;"/>
   </g>
   <g id="line2d_2">
    <path clip-path="url(#p1657639427)" d="M 69.602087 291.575652 
L 69.602087 50.288696 
" style="fill:none;stroke:#000000;stroke-linecap:square;stroke-width:3;"/>
   </g>
   <g id="line2d_3">
    <path clip-path="url(#p1657639427)" d="M 69.602087 291.575652 
L 419.489043 291.575652 
" style="fill:none;stroke:#000000;stroke-linecap:square;stroke-width:3;"/>
   </g>
   <g id="line2d_4">
    <path clip-path="url(#p1657639427)" d="M 69.602087 146.803478 
L 75.532374 141.091448 
L 81.462662 135.459728 
L 87.392949 129.987501 
L 93.323237 124.751704 
L 99.253524 119.825954 
L 105.183811 115.279505 
L 111.114099 111.17628 
L 117.044386 107.573971 
L 122.974674 104.523225 
L 128.904961 102.066935 
L 134.835248 100.239637 
L 140.765536 99.067023 
L 146.695823 98.565579 
L 152.626111 98.742356 
L 158.556398 99.594867 
L 164.486685 101.111128 
L 170.416973 103.269819 
L 176.34726 106.040589 
L 182.277548 109.384481 
L 188.207835 113.254482 
L 194.138122 117.596178 
L 200.06841 122.348527 
L 205.998697 127.44471 
L 211.928985 132.813075 
L 217.859272 138.378144 
L 223.789559 144.061673 
L 229.719847 149.783751 
L 235.650134 155.463927 
L 241.580422 161.022338 
L 247.510709 166.380832 
L 253.440996 171.464071 
L 259.371284 176.200585 
L 265.301571 180.523777 
L 271.231859 184.372865 
L 277.162146 187.693731 
L 283.092433 190.439684 
L 289.022721 192.572115 
L 294.953008 194.061044 
L 300.883296 194.885535 
L 306.813583 195.033997 
L 312.74387 194.504343 
L 318.674158 193.304018 
L 324.604445 191.4499 
L 330.534732 188.968057 
L 336.46502 185.893384 
L 342.395307 182.269111 
L 348.325595 178.146193 
L 354.255882 173.582601 
L 360.186169 168.642496 
L 366.116457 163.395336 
L 372.046744 157.914896 
L 377.977032 152.278231 
L 383.907319 146.564591 
L 389.837606 140.85431 
L 395.767894 135.227674 
L 401.698181 129.763793 
L 407.628469 124.539488 
L 413.558756 119.628212 
L 419.489043 115.099019 
" style="fill:none;stroke:#ff0000;stroke-linecap:square;stroke-width:3;"/>
   </g>
   <g id="line2d_5">
    <path clip-path="url(#p1657639427)" d="M 167.880564 139.56487 
L 167.94172 138.833697 
L 168.013306 138.102524 
L 168.096758 137.371352 
L 168.193641 136.640179 
L 168.305652 135.909007 
L 168.434616 135.177834 
L 168.582477 134.446661 
L 168.751291 133.715489 
L 168.943214 132.984316 
L 169.160477 132.253144 
L 169.405374 131.521971 
L 169.680226 130.790798 
L 169.987354 130.059626 
L 170.329039 129.328453 
L 170.707486 128.597281 
L 171.124772 127.866108 
L 171.582799 127.134935 
L 172.083243 126.403763 
L 172.627496 125.67259 
L 173.21661 124.941418 
L 173.85124 124.210245 
L 174.531585 123.479072 
L 175.257341 122.7479 
L 176.02764 122.016727 
L 176.841017 121.285555 
L 177.695362 120.554382 
L 178.587898 119.823209 
L 179.515159 119.092037 
L 180.472981 118.360864 
L 181.45651 117.629692 
L 182.460219 116.898519 
L 183.477941 116.167347 
L 184.502915 115.436174 
L 185.527851 114.705001 
L 186.545004 113.973829 
L 187.546263 113.242656 
L 188.523253 112.511484 
L 189.467449 111.780311 
L 190.370293 111.049138 
L 191.223324 110.317966 
L 192.018306 109.586793 
L 192.74736 108.855621 
L 193.403094 108.124448 
L 193.978729 107.393275 
L 194.46821 106.662103 
L 194.86632 105.93093 
L 195.168765 105.199758 
L 195.372254 104.468585 
L 195.47456 103.737412 
L 195.47456 103.00624 
L 195.372254 102.275067 
L 195.168765 101.543895 
L 194.86632 100.812722 
L 194.46821 100.081549 
L 193.978729 99.350377 
L 193.403094 98.619204 
L 192.74736 97.888032 
L 192.018306 97.156859 
L 191.223324 96.425686 
L 190.370293 95.694514 
L 189.467449 94.963341 
L 188.523253 94.232169 
L 187.546263 93.500996 
L 186.545004 92.769823 
L 185.527851 92.038651 
L 184.502915 91.307478 
L 183.477941 90.576306 
L 182.460219 89.845133 
L 181.45651 89.11396 
L 180.472981 88.382788 
L 179.515159 87.651615 
L 178.587898 86.920443 
L 177.695362 86.18927 
L 176.841017 85.458097 
L 176.02764 84.726925 
L 175.257341 83.995752 
L 174.531585 83.26458 
L 173.85124 82.533407 
L 173.21661 81.802235 
L 172.627496 81.071062 
L 172.083243 80.339889 
L 171.582799 79.608717 
L 171.124772 78.877544 
L 170.707486 78.146372 
L 170.329039 77.415199 
L 169.987354 76.684026 
L 169.680226 75.952854 
L 169.405374 75.221681 
L 169.160477 74.490509 
L 168.943214 73.759336 
L 168.751291 73.028163 
L 168.582477 72.296991 
L 168.434616 71.565818 
L 168.305652 70.834646 
L 168.193641 70.103473 
L 168.096758 69.3723 
L 168.013306 68.641128 
L 167.94172 67.909955 
L 167.880564 67.178783 
" style="fill:none;stroke:#ff0000;stroke-linecap:square;"/>
   </g>
   <g id="line2d_6">
    <path clip-path="url(#p1657639427)" d="M 167.880564 204.712348 
L 167.94172 203.981175 
L 168.013306 203.250003 
L 168.096758 202.51883 
L 168.193641 201.787657 
L 168.305652 201.056485 
L 168.434616 200.325312 
L 168.582477 199.59414 
L 168.751291 198.862967 
L 168.943214 198.131794 
L 169.160477 197.400622 
L 169.405374 196.669449 
L 169.680226 195.938277 
L 169.987354 195.207104 
L 170.329039 194.475931 
L 170.707486 193.744759 
L 171.124772 193.013586 
L 171.582799 192.282414 
L 172.083243 191.551241 
L 172.627496 190.820069 
L 173.21661 190.088896 
L 173.85124 189.357723 
L 174.531585 188.626551 
L 175.257341 187.895378 
L 176.02764 187.164206 
L 176.841017 186.433033 
L 177.695362 185.70186 
L 178.587898 184.970688 
L 179.515159 184.239515 
L 180.472981 183.508343 
L 181.45651 182.77717 
L 182.460219 182.045997 
L 183.477941 181.314825 
L 184.502915 180.583652 
L 185.527851 179.85248 
L 186.545004 179.121307 
L 187.546263 178.390134 
L 188.523253 177.658962 
L 189.467449 176.927789 
L 190.370293 176.196617 
L 191.223324 175.465444 
L 192.018306 174.734271 
L 192.74736 174.003099 
L 193.403094 173.271926 
L 193.978729 172.540754 
L 194.46821 171.809581 
L 194.86632 171.078408 
L 195.168765 170.347236 
L 195.372254 169.616063 
L 195.47456 168.884891 
L 195.47456 168.153718 
L 195.372254 167.422545 
L 195.168765 166.691373 
L 194.86632 165.9602 
L 194.46821 165.229028 
L 193.978729 164.497855 
L 193.403094 163.766682 
L 192.74736 163.03551 
L 192.018306 162.304337 
L 191.223324 161.573165 
L 190.370293 160.841992 
L 189.467449 160.110819 
L 188.523253 159.379647 
L 187.546263 158.648474 
L 186.545004 157.917302 
L 185.527851 157.186129 
L 184.502915 156.454957 
L 183.477941 155.723784 
L 182.460219 154.992611 
L 181.45651 154.261439 
L 180.472981 153.530266 
L 179.515159 152.799094 
L 178.587898 152.067921 
L 177.695362 151.336748 
L 176.841017 150.605576 
L 176.02764 149.874403 
L 175.257341 149.143231 
L 174.531585 148.412058 
L 173.85124 147.680885 
L 173.21661 146.949713 
L 172.627496 146.21854 
L 172.083243 145.487368 
L 171.582799 144.756195 
L 171.124772 144.025022 
L 170.707486 143.29385 
L 170.329039 142.562677 
L 169.987354 141.831505 
L 169.680226 141.100332 
L 169.405374 140.369159 
L 169.160477 139.637987 
L 168.943214 138.906814 
L 168.751291 138.175642 
L 168.582477 137.444469 
L 168.434616 136.713296 
L 168.305652 135.982124 
L 168.193641 135.250951 
L 168.096758 134.519779 
L 168.013306 133.788606 
L 167.94172 133.057433 
L 167.880564 132.326261 
" style="fill:none;stroke:#0000ff;stroke-linecap:square;"/>
   </g>
   <g id="line2d_7">
    <path clip-path="url(#p1657639427)" d="M 165.821 291.575652 
L 165.821 50.288696 
" style="fill:none;stroke:#000000;stroke-linecap:square;"/>
   </g>
   <g id="line2d_8">
    <path clip-path="url(#p1657639427)" d="M 69.602087 103.371826 
L 192.062522 103.371826 
" style="fill:none;stroke:#ff00ff;stroke-dasharray:7.4,3.2;stroke-dashoffset:0;stroke-width:2;"/>
   </g>
   <g id="line2d_9">
    <path clip-path="url(#p1657639427)" d="M 69.602087 168.519304 
L 192.062522 168.519304 
" style="fill:none;stroke:#ff00ff;stroke-dasharray:7.4,3.2;stroke-dashoffset:0;stroke-width:2;"/>
   </g>
   <g id="text_1">
    <!-- $p\left(y_{s} | x_{0}\right)$ -->
    <defs>
     <path d="M -2.484375 -19.390625 
Q -3.421875 -19.390625 -3.421875 -18.109375 
Q -3.078125 -15.921875 -2.09375 -15.921875 
Q 1.03125 -15.921875 2.265625 -15.359375 
Q 3.515625 -14.796875 4.203125 -12.5 
L 15.484375 32.515625 
Q 16.21875 34.375 16.21875 37.3125 
Q 16.21875 41.609375 13.28125 41.609375 
Q 10.15625 41.609375 8.640625 37.859375 
Q 7.125 34.125 5.71875 28.421875 
Q 5.71875 27.78125 4.890625 27.78125 
L 3.71875 27.78125 
Q 3.46875 27.78125 3.171875 28.140625 
Q 2.875 28.515625 2.875 28.8125 
Q 3.953125 33.15625 4.953125 36.171875 
Q 5.953125 39.203125 8.078125 41.6875 
Q 10.203125 44.1875 13.375 44.1875 
Q 16.796875 44.1875 19.375 42.25 
Q 21.96875 40.328125 22.703125 37.015625 
Q 25.4375 40.1875 28.75 42.1875 
Q 32.078125 44.1875 35.59375 44.1875 
Q 39.796875 44.1875 42.890625 41.9375 
Q 46 39.703125 47.5625 36.0625 
Q 49.125 32.421875 49.125 28.21875 
Q 49.125 21.78125 45.828125 14.890625 
Q 42.53125 8.015625 36.890625 3.4375 
Q 31.25 -1.125 24.8125 -1.125 
Q 21.875 -1.125 19.5 0.53125 
Q 17.140625 2.203125 15.828125 4.890625 
L 11.28125 -12.890625 
Q 11.03125 -14.359375 10.984375 -14.59375 
Q 10.984375 -15.921875 17.578125 -15.921875 
Q 18.609375 -15.921875 18.609375 -17.1875 
Q 18.265625 -18.5 18.046875 -18.9375 
Q 17.828125 -19.390625 16.890625 -19.390625 
z
M 24.90625 1.515625 
Q 28.375 1.515625 31.34375 4.375 
Q 34.328125 7.234375 36.1875 10.796875 
Q 37.546875 13.484375 38.734375 17.359375 
Q 39.9375 21.234375 40.8125 25.625 
Q 41.703125 30.03125 41.703125 32.625 
Q 41.703125 34.90625 41.09375 36.90625 
Q 40.484375 38.921875 39.09375 40.265625 
Q 37.703125 41.609375 35.40625 41.609375 
Q 31.734375 41.609375 28.484375 38.984375 
Q 25.25 36.375 22.609375 32.515625 
L 22.609375 32.171875 
L 17.09375 10.109375 
Q 17.78125 6.546875 19.734375 4.03125 
Q 21.6875 1.515625 24.90625 1.515625 
z
" id="Cmmi10-70"/>
     <path d="M 31 -24.8125 
Q 25.4375 -20.40625 21.40625 -14.71875 
Q 17.390625 -9.03125 14.8125 -2.578125 
Q 12.25 3.859375 10.984375 10.890625 
Q 9.71875 17.921875 9.71875 25 
Q 9.71875 32.171875 10.984375 39.203125 
Q 12.25 46.234375 14.859375 52.734375 
Q 17.484375 59.234375 21.53125 64.890625 
Q 25.59375 70.5625 31 74.8125 
Q 31 75 31.5 75 
L 32.421875 75 
Q 32.71875 75 32.953125 74.734375 
Q 33.203125 74.46875 33.203125 74.125 
Q 33.203125 73.6875 33.015625 73.484375 
Q 28.125 68.703125 24.875 63.234375 
Q 21.625 57.765625 19.640625 51.578125 
Q 17.671875 45.40625 16.796875 38.78125 
Q 15.921875 32.171875 15.921875 25 
Q 15.921875 -6.78125 32.90625 -23.296875 
Q 33.203125 -23.578125 33.203125 -24.125 
Q 33.203125 -24.359375 32.9375 -24.671875 
Q 32.671875 -25 32.421875 -25 
L 31.5 -25 
Q 31 -25 31 -24.8125 
z
" id="Cmr10-28"/>
     <path d="M 8.40625 -14.3125 
Q 10.5 -17.921875 15.71875 -17.921875 
Q 20.453125 -17.921875 23.921875 -14.59375 
Q 27.390625 -11.28125 29.515625 -6.5625 
Q 31.640625 -1.859375 32.8125 3.078125 
Q 28.375 -1.125 23.1875 -1.125 
Q 19.234375 -1.125 16.453125 0.234375 
Q 13.671875 1.609375 12.125 4.3125 
Q 10.59375 7.03125 10.59375 10.890625 
Q 10.59375 14.15625 11.46875 17.59375 
Q 12.359375 21.046875 13.9375 25.265625 
Q 15.53125 29.5 16.703125 32.625 
Q 18.015625 36.28125 18.015625 38.625 
Q 18.015625 41.609375 15.828125 41.609375 
Q 11.859375 41.609375 9.296875 37.53125 
Q 6.734375 33.453125 5.515625 28.421875 
Q 5.328125 27.78125 4.6875 27.78125 
L 3.515625 27.78125 
Q 2.6875 27.78125 2.6875 28.71875 
L 2.6875 29 
Q 4.296875 34.96875 7.609375 39.578125 
Q 10.9375 44.1875 16.015625 44.1875 
Q 19.578125 44.1875 22.046875 41.84375 
Q 24.515625 39.5 24.515625 35.890625 
Q 24.515625 34.03125 23.6875 31.984375 
Q 23.25 30.765625 21.6875 26.65625 
Q 20.125 22.5625 19.28125 19.875 
Q 18.453125 17.1875 17.921875 14.59375 
Q 17.390625 12.015625 17.390625 9.421875 
Q 17.390625 6.109375 18.796875 3.8125 
Q 20.21875 1.515625 23.296875 1.515625 
Q 29.5 1.515625 34.421875 9.078125 
L 42 39.890625 
Q 42.328125 41.21875 43.546875 42.15625 
Q 44.78125 43.109375 46.1875 43.109375 
Q 47.40625 43.109375 48.3125 42.328125 
Q 49.21875 41.546875 49.21875 40.28125 
Q 49.21875 39.703125 49.125 39.5 
L 39.203125 -0.296875 
Q 37.890625 -5.421875 34.375 -10.109375 
Q 30.859375 -14.796875 25.90625 -17.65625 
Q 20.953125 -20.515625 15.578125 -20.515625 
Q 12.984375 -20.515625 10.4375 -19.5 
Q 7.90625 -18.5 6.34375 -16.5 
Q 4.78125 -14.5 4.78125 -11.8125 
Q 4.78125 -9.078125 6.390625 -7.078125 
Q 8.015625 -5.078125 10.6875 -5.078125 
Q 12.3125 -5.078125 13.40625 -6.078125 
Q 14.5 -7.078125 14.5 -8.6875 
Q 14.5 -10.984375 12.78125 -12.6875 
Q 11.078125 -14.40625 8.796875 -14.40625 
Q 8.6875 -14.359375 8.59375 -14.328125 
Q 8.5 -14.3125 8.40625 -14.3125 
z
" id="Cmmi10-79"/>
     <path d="M 8.6875 6.109375 
Q 11.375 1.515625 19.484375 1.515625 
Q 23 1.515625 26.171875 2.703125 
Q 29.34375 3.90625 31.421875 6.296875 
Q 33.5 8.6875 33.5 12.109375 
Q 33.5 14.703125 31.640625 16.359375 
Q 29.78125 18.015625 27.09375 18.609375 
L 21.6875 19.671875 
Q 17.96875 20.609375 15.578125 23.140625 
Q 13.1875 25.6875 13.1875 29.296875 
Q 13.1875 33.734375 15.59375 37.15625 
Q 18.015625 40.578125 21.96875 42.375 
Q 25.921875 44.1875 30.171875 44.1875 
Q 34.71875 44.1875 38.296875 42.015625 
Q 41.890625 39.84375 41.890625 35.59375 
Q 41.890625 33.296875 40.59375 31.53125 
Q 39.3125 29.78125 37.015625 29.78125 
Q 35.6875 29.78125 34.734375 30.640625 
Q 33.796875 31.5 33.796875 32.8125 
Q 33.796875 33.984375 34.453125 35.078125 
Q 35.109375 36.1875 36.203125 36.84375 
Q 37.3125 37.5 38.484375 37.5 
Q 37.59375 39.65625 35.171875 40.625 
Q 32.765625 41.609375 29.984375 41.609375 
Q 27.4375 41.609375 24.890625 40.578125 
Q 22.359375 39.546875 20.8125 37.5625 
Q 19.28125 35.59375 19.28125 32.90625 
Q 19.28125 31.109375 20.546875 29.734375 
Q 21.828125 28.375 23.6875 27.78125 
L 29.5 26.609375 
Q 32.28125 26.03125 34.59375 24.53125 
Q 36.921875 23.046875 38.25 20.765625 
Q 39.59375 18.5 39.59375 15.578125 
Q 39.59375 11.859375 37.515625 8.25 
Q 35.453125 4.640625 32.421875 2.484375 
Q 27.09375 -1.125 19.390625 -1.125 
Q 14.0625 -1.125 9.609375 1.3125 
Q 5.171875 3.765625 5.171875 8.59375 
Q 5.171875 11.328125 6.75 13.34375 
Q 8.34375 15.375 11.078125 15.375 
Q 12.703125 15.375 13.796875 14.390625 
Q 14.890625 13.421875 14.890625 11.8125 
Q 14.890625 9.515625 13.171875 7.8125 
Q 11.46875 6.109375 9.1875 6.109375 
z
" id="Cmmi10-73"/>
     <path d="M 11.921875 -23.1875 
L 11.921875 73.1875 
Q 11.921875 73.96875 12.5 74.484375 
Q 13.09375 75 13.921875 75 
Q 14.65625 75 15.28125 74.484375 
Q 15.921875 73.96875 15.921875 73.1875 
L 15.921875 -23.1875 
Q 15.921875 -23.96875 15.28125 -24.484375 
Q 14.65625 -25 13.921875 -25 
Q 13.09375 -25 12.5 -24.484375 
Q 11.921875 -23.96875 11.921875 -23.1875 
z
" id="Cmsy10-6a"/>
     <path d="M 7.8125 2.875 
Q 9.578125 1.515625 12.796875 1.515625 
Q 15.921875 1.515625 18.3125 4.515625 
Q 20.703125 7.515625 21.578125 11.078125 
L 26.125 28.8125 
Q 27.203125 33.640625 27.203125 35.40625 
Q 27.203125 37.890625 25.8125 39.75 
Q 24.421875 41.609375 21.921875 41.609375 
Q 18.75 41.609375 15.96875 39.625 
Q 13.1875 37.640625 11.28125 34.59375 
Q 9.375 31.546875 8.59375 28.421875 
Q 8.40625 27.78125 7.8125 27.78125 
L 6.59375 27.78125 
Q 5.8125 27.78125 5.8125 28.71875 
L 5.8125 29 
Q 6.78125 32.71875 9.125 36.25 
Q 11.46875 39.796875 14.859375 41.984375 
Q 18.265625 44.1875 22.125 44.1875 
Q 25.78125 44.1875 28.734375 42.234375 
Q 31.6875 40.28125 32.90625 36.921875 
Q 34.625 39.984375 37.28125 42.078125 
Q 39.9375 44.1875 43.109375 44.1875 
Q 45.265625 44.1875 47.5 43.421875 
Q 49.75 42.671875 51.171875 41.109375 
Q 52.59375 39.546875 52.59375 37.203125 
Q 52.59375 34.671875 50.953125 32.828125 
Q 49.3125 31 46.78125 31 
Q 45.171875 31 44.09375 32.03125 
Q 43.015625 33.0625 43.015625 34.625 
Q 43.015625 36.71875 44.453125 38.296875 
Q 45.90625 39.890625 47.90625 40.1875 
Q 46.09375 41.609375 42.921875 41.609375 
Q 39.703125 41.609375 37.328125 38.625 
Q 34.96875 35.640625 33.984375 31.984375 
L 29.59375 14.3125 
Q 28.515625 10.296875 28.515625 7.71875 
Q 28.515625 5.171875 29.953125 3.34375 
Q 31.390625 1.515625 33.796875 1.515625 
Q 38.484375 1.515625 42.15625 5.640625 
Q 45.84375 9.765625 47.015625 14.703125 
Q 47.21875 15.28125 47.796875 15.28125 
L 49.03125 15.28125 
Q 49.421875 15.28125 49.65625 15.015625 
Q 49.90625 14.75 49.90625 14.40625 
Q 49.90625 14.3125 49.8125 14.109375 
Q 48.390625 8.15625 43.84375 3.515625 
Q 39.3125 -1.125 33.59375 -1.125 
Q 29.9375 -1.125 26.984375 0.84375 
Q 24.03125 2.828125 22.796875 6.203125 
Q 21.234375 3.265625 18.46875 1.0625 
Q 15.71875 -1.125 12.59375 -1.125 
Q 10.453125 -1.125 8.171875 -0.359375 
Q 5.90625 0.390625 4.484375 1.953125 
Q 3.078125 3.515625 3.078125 5.90625 
Q 3.078125 8.25 4.703125 10.171875 
Q 6.34375 12.109375 8.796875 12.109375 
Q 10.453125 12.109375 11.578125 11.109375 
Q 12.703125 10.109375 12.703125 8.5 
Q 12.703125 6.390625 11.296875 4.828125 
Q 9.90625 3.265625 7.8125 2.875 
z
" id="Cmmi10-78"/>
     <path d="M 25 -2.203125 
Q 12.75 -2.203125 8.328125 7.875 
Q 3.90625 17.96875 3.90625 31.890625 
Q 3.90625 40.578125 5.484375 48.234375 
Q 7.078125 55.90625 11.78125 61.25 
Q 16.5 66.609375 25 66.609375 
Q 31.59375 66.609375 35.78125 63.375 
Q 39.984375 60.15625 42.1875 55.046875 
Q 44.390625 49.953125 45.1875 44.109375 
Q 46 38.28125 46 31.890625 
Q 46 23.296875 44.40625 15.796875 
Q 42.828125 8.296875 38.1875 3.046875 
Q 33.546875 -2.203125 25 -2.203125 
z
M 25 0.390625 
Q 30.5625 0.390625 33.296875 6.09375 
Q 36.03125 11.8125 36.671875 18.75 
Q 37.3125 25.6875 37.3125 33.5 
Q 37.3125 41.015625 36.671875 47.359375 
Q 36.03125 53.71875 33.3125 58.859375 
Q 30.609375 64.015625 25 64.015625 
Q 19.34375 64.015625 16.609375 58.828125 
Q 13.875 53.65625 13.234375 47.328125 
Q 12.59375 41.015625 12.59375 33.5 
Q 12.59375 27.9375 12.859375 23 
Q 13.140625 18.0625 14.3125 12.8125 
Q 15.484375 7.5625 18.09375 3.96875 
Q 20.703125 0.390625 25 0.390625 
z
" id="Cmr10-30"/>
     <path d="M 6.5 -25 
Q 5.609375 -25 5.609375 -24.125 
Q 5.609375 -23.6875 5.8125 -23.484375 
Q 22.90625 -6.78125 22.90625 25 
Q 22.90625 56.78125 6 73.296875 
Q 5.609375 73.53125 5.609375 74.125 
Q 5.609375 74.46875 5.875 74.734375 
Q 6.15625 75 6.5 75 
L 7.421875 75 
Q 7.71875 75 7.90625 74.8125 
Q 15.09375 69.140625 19.875 61.03125 
Q 24.65625 52.9375 26.875 43.75 
Q 29.109375 34.578125 29.109375 25 
Q 29.109375 17.921875 27.90625 11.0625 
Q 26.703125 4.203125 24.09375 -2.453125 
Q 21.484375 -9.125 17.484375 -14.765625 
Q 13.484375 -20.40625 7.90625 -24.8125 
Q 7.71875 -25 7.421875 -25 
z
" id="Cmr10-29"/>
    </defs>
    <g transform="translate(202.55913 103.371826)scale(0.16 -0.16)">
     <use xlink:href="#Cmmi10-70"/>
     <use transform="translate(50.292969 0)" xlink:href="#Cmr10-28"/>
     <use transform="translate(89.111328 0)" xlink:href="#Cmmi10-79"/>
     <use transform="translate(138.134766 -17.00625)scale(0.7)" xlink:href="#Cmmi10-73"/>
     <use transform="translate(177.25625 0)" xlink:href="#Cmsy10-6a"/>
     <use transform="translate(204.941797 0)" xlink:href="#Cmmi10-78"/>
     <use transform="translate(262.021875 -17.00625)scale(0.7)" xlink:href="#Cmr10-30"/>
     <use transform="translate(303.399219 0)" xlink:href="#Cmr10-29"/>
    </g>
   </g>
   <g id="text_2">
    <!-- $p\left(y_{t} | x_{0}\right)$ -->
    <defs>
     <path d="M 6.203125 8.109375 
Q 6.203125 9.578125 6.5 10.890625 
L 13.71875 39.59375 
L 3.21875 39.59375 
Q 2.203125 39.59375 2.203125 40.921875 
Q 2.59375 43.109375 3.515625 43.109375 
L 14.59375 43.109375 
L 18.609375 59.421875 
Q 19 60.75 20.171875 61.671875 
Q 21.34375 62.59375 22.796875 62.59375 
Q 24.078125 62.59375 24.921875 61.828125 
Q 25.78125 61.078125 25.78125 59.8125 
Q 25.78125 59.515625 25.75 59.34375 
Q 25.734375 59.1875 25.6875 58.984375 
L 21.6875 43.109375 
L 31.984375 43.109375 
Q 33.015625 43.109375 33.015625 41.796875 
Q 32.953125 41.546875 32.8125 40.953125 
Q 32.671875 40.375 32.421875 39.984375 
Q 32.171875 39.59375 31.6875 39.59375 
L 20.796875 39.59375 
L 13.625 10.6875 
Q 12.890625 7.859375 12.890625 5.8125 
Q 12.890625 1.515625 15.828125 1.515625 
Q 20.21875 1.515625 23.609375 5.640625 
Q 27 9.765625 28.8125 14.703125 
Q 29.203125 15.28125 29.59375 15.28125 
L 30.8125 15.28125 
Q 31.203125 15.28125 31.4375 15.015625 
Q 31.6875 14.75 31.6875 14.40625 
Q 31.6875 14.203125 31.59375 14.109375 
Q 29.390625 8.0625 25.1875 3.46875 
Q 21 -1.125 15.578125 -1.125 
Q 11.625 -1.125 8.90625 1.453125 
Q 6.203125 4.046875 6.203125 8.109375 
z
" id="Cmmi10-74"/>
    </defs>
    <g transform="translate(202.55913 173.345043)scale(0.16 -0.16)">
     <use xlink:href="#Cmmi10-70"/>
     <use transform="translate(50.292969 0)" xlink:href="#Cmr10-28"/>
     <use transform="translate(89.111328 0)" xlink:href="#Cmmi10-79"/>
     <use transform="translate(138.134766 -17.00625)scale(0.7)" xlink:href="#Cmmi10-74"/>
     <use transform="translate(169.770898 0)" xlink:href="#Cmsy10-6a"/>
     <use transform="translate(197.456445 0)" xlink:href="#Cmmi10-78"/>
     <use transform="translate(254.536523 -17.00625)scale(0.7)" xlink:href="#Cmr10-30"/>
     <use transform="translate(295.913867 0)" xlink:href="#Cmr10-29"/>
    </g>
   </g>
   <g id="text_3">
    <!-- $x_{0}$ -->
    <g transform="translate(160.572696 303.64)scale(0.16 -0.16)">
     <use transform="translate(0 0.8125)" xlink:href="#Cmmi10-78"/>
     <use transform="translate(57.080078 -16.19375)scale(0.7)" xlink:href="#Cmr10-30"/>
    </g>
   </g>
   <g id="text_4">
    <!-- $x$ -->
    <g transform="translate(408.992435 306.05287)scale(0.16 -0.16)">
     <use transform="translate(0 0.8125)" xlink:href="#Cmmi10-78"/>
    </g>
   </g>
   <g id="text_5">
    <!-- $y$ -->
    <g transform="translate(52.107739 50.288696)scale(0.16 -0.16)">
     <use transform="translate(0 0.8125)" xlink:href="#Cmmi10-79"/>
    </g>
   </g>
   <g id="text_6">
    <!-- $\mathrm{\mathbb{E}}[y_{s} | x_{0}]$ -->
    <defs>
     <path d="M 56.703125 0 
L 7 0 
L 7 66.203125 
L 56.703125 66.203125 
L 56.703125 61.796875 
L 23.59375 61.796875 
L 23.59375 36.296875 
L 53.5 36.296875 
L 53.5 31.90625 
L 23.59375 31.90625 
L 23.59375 4.40625 
L 56.703125 4.40625 
z
M 19.203125 4.40625 
L 19.203125 61.796875 
L 11.40625 61.796875 
L 11.40625 4.40625 
z
" id="STIXGeneral-Regular-1d53c"/>
     <path d="M 11.8125 -25 
L 11.8125 75 
L 25.484375 75 
L 25.484375 71 
L 15.828125 71 
L 15.828125 -21 
L 25.484375 -21 
L 25.484375 -25 
z
" id="Cmr10-5b"/>
     <path d="M 2.203125 -25 
L 2.203125 -21 
L 11.921875 -21 
L 11.921875 71 
L 2.203125 71 
L 2.203125 75 
L 15.921875 75 
L 15.921875 -25 
z
" id="Cmr10-5d"/>
    </defs>
    <g transform="translate(10.121304 103.371826)scale(0.16 -0.16)">
     <use xlink:href="#STIXGeneral-Regular-1d53c"/>
     <use transform="translate(62.199997 0)" xlink:href="#Cmr10-5b"/>
     <use transform="translate(89.885544 0)" xlink:href="#Cmmi10-79"/>
     <use transform="translate(138.908981 -17.00625)scale(0.7)" xlink:href="#Cmmi10-73"/>
     <use transform="translate(178.030466 0)" xlink:href="#Cmsy10-6a"/>
     <use transform="translate(205.716013 0)" xlink:href="#Cmmi10-78"/>
     <use transform="translate(262.796091 -17.00625)scale(0.7)" xlink:href="#Cmr10-30"/>
     <use transform="translate(304.173434 0)" xlink:href="#Cmr10-5d"/>
    </g>
   </g>
   <g id="text_7">
    <!-- $\mathrm{\mathbb{E}}[y_{t} | x_{0}]$ -->
    <g transform="translate(10.121304 168.519304)scale(0.16 -0.16)">
     <use xlink:href="#STIXGeneral-Regular-1d53c"/>
     <use transform="translate(62.199997 0)" xlink:href="#Cmr10-5b"/>
     <use transform="translate(89.885544 0)" xlink:href="#Cmmi10-79"/>
     <use transform="translate(138.908981 -17.00625)scale(0.7)" xlink:href="#Cmmi10-74"/>
     <use transform="translate(170.545114 0)" xlink:href="#Cmsy10-6a"/>
     <use transform="translate(198.230661 0)" xlink:href="#Cmmi10-78"/>
     <use transform="translate(255.310739 -17.00625)scale(0.7)" xlink:href="#Cmr10-30"/>
     <use transform="translate(296.688083 0)" xlink:href="#Cmr10-5d"/>
    </g>
   </g>
   <g id="text_8">
    <!-- Illustration of conditional distribution shift -->
    <defs>
     <path d="M 36.625 1.8125 
L 36.625 0 
L 2 0 
L 2 1.8125 
L 4.203125 1.8125 
Q 7.078125 1.8125 8.84375 2.828125 
Q 10.109375 3.515625 10.796875 5.171875 
Q 11.328125 6.34375 11.328125 11.328125 
L 11.328125 54.890625 
Q 11.328125 59.96875 10.78125 61.234375 
Q 10.25 62.5 8.609375 63.453125 
Q 6.984375 64.40625 4.203125 64.40625 
L 2 64.40625 
L 2 66.21875 
L 36.625 66.21875 
L 36.625 64.40625 
L 34.421875 64.40625 
Q 31.546875 64.40625 29.78125 63.375 
Q 28.515625 62.703125 27.78125 61.03125 
Q 27.25 59.859375 27.25 54.890625 
L 27.25 11.328125 
Q 27.25 6.25 27.8125 4.984375 
Q 28.375 3.71875 30 2.765625 
Q 31.640625 1.8125 34.421875 1.8125 
z
" id="TimesNewRomanPS-BoldMT-49"/>
     <path d="M 21.234375 66.21875 
L 21.234375 9.46875 
Q 21.234375 4.640625 22.359375 3.296875 
Q 23.484375 1.953125 26.765625 1.765625 
L 26.765625 0 
L 2.09375 0 
L 2.09375 1.765625 
Q 5.125 1.859375 6.59375 3.515625 
Q 7.5625 4.640625 7.5625 9.46875 
L 7.5625 56.734375 
Q 7.5625 61.53125 6.4375 62.859375 
Q 5.328125 64.203125 2.09375 64.40625 
L 2.09375 66.21875 
z
" id="TimesNewRomanPS-BoldMT-6c"/>
     <path d="M 47.46875 45.65625 
L 47.46875 9.90625 
Q 47.46875 4.6875 48.4375 3.390625 
Q 49.421875 2.09375 52.390625 1.765625 
L 52.390625 0 
L 33.796875 0 
L 33.796875 6.109375 
Q 30.515625 2.203125 27.234375 0.40625 
Q 23.96875 -1.375 19.921875 -1.375 
Q 16.0625 -1.375 13.0625 1 
Q 10.0625 3.375 9.03125 6.546875 
Q 8.015625 9.71875 8.015625 17.625 
L 8.015625 35.75 
Q 8.015625 40.921875 7.0625 42.1875 
Q 6.109375 43.453125 3.078125 43.84375 
L 3.078125 45.65625 
L 21.6875 45.65625 
L 21.6875 14.453125 
Q 21.6875 9.578125 22.140625 8.15625 
Q 22.609375 6.734375 23.609375 6 
Q 24.609375 5.28125 25.921875 5.28125 
Q 27.6875 5.28125 29.109375 6.203125 
Q 31.0625 7.46875 33.796875 11.328125 
L 33.796875 35.75 
Q 33.796875 40.921875 32.84375 42.1875 
Q 31.890625 43.453125 28.859375 43.84375 
L 28.859375 45.65625 
z
" id="TimesNewRomanPS-BoldMT-75"/>
     <path d="M 32.234375 46.921875 
L 32.953125 31.34375 
L 31.296875 31.34375 
Q 28.328125 38.28125 25.125 40.8125 
Q 21.921875 43.359375 18.75 43.359375 
Q 16.75 43.359375 15.328125 42.015625 
Q 13.921875 40.671875 13.921875 38.921875 
Q 13.921875 37.59375 14.890625 36.375 
Q 16.453125 34.375 23.625 29.515625 
Q 30.8125 24.65625 33.078125 21.265625 
Q 35.359375 17.875 35.359375 13.671875 
Q 35.359375 9.859375 33.453125 6.203125 
Q 31.546875 2.546875 28.078125 0.578125 
Q 24.609375 -1.375 20.40625 -1.375 
Q 17.140625 -1.375 11.671875 0.6875 
Q 10.203125 1.21875 9.671875 1.21875 
Q 8.0625 1.21875 6.984375 -1.21875 
L 5.375 -1.21875 
L 4.59375 15.1875 
L 6.25 15.1875 
Q 8.453125 8.734375 12.28125 5.515625 
Q 16.109375 2.296875 19.53125 2.296875 
Q 21.875 2.296875 23.359375 3.734375 
Q 24.859375 5.171875 24.859375 7.234375 
Q 24.859375 9.578125 23.390625 11.28125 
Q 21.921875 12.984375 16.84375 16.453125 
Q 9.375 21.625 7.171875 24.359375 
Q 3.953125 28.375 3.953125 33.203125 
Q 3.953125 38.484375 7.59375 42.75 
Q 11.234375 47.015625 18.109375 47.015625 
Q 21.828125 47.015625 25.296875 45.21875 
Q 26.609375 44.484375 27.4375 44.484375 
Q 28.328125 44.484375 28.859375 44.84375 
Q 29.390625 45.21875 30.5625 46.921875 
z
" id="TimesNewRomanPS-BoldMT-73"/>
     <path d="M 21.484375 62.359375 
L 21.484375 45.65625 
L 32.328125 45.65625 
L 32.328125 40.828125 
L 21.484375 40.828125 
L 21.484375 12.640625 
Q 21.484375 8.6875 21.84375 7.53125 
Q 22.21875 6.390625 23.140625 5.6875 
Q 24.078125 4.984375 24.859375 4.984375 
Q 28.03125 4.984375 30.859375 9.8125 
L 32.328125 8.734375 
Q 28.375 -0.640625 19.484375 -0.640625 
Q 15.140625 -0.640625 12.125 1.78125 
Q 9.125 4.203125 8.296875 7.171875 
Q 7.8125 8.84375 7.8125 16.15625 
L 7.8125 40.828125 
L 1.859375 40.828125 
L 1.859375 42.53125 
Q 8.015625 46.875 12.328125 51.65625 
Q 16.65625 56.453125 19.875 62.359375 
z
" id="TimesNewRomanPS-BoldMT-74"/>
     <path d="M 22.3125 45.65625 
L 22.3125 35.296875 
Q 26.859375 42.390625 30.265625 44.703125 
Q 33.6875 47.015625 36.859375 47.015625 
Q 39.59375 47.015625 41.234375 45.328125 
Q 42.875 43.65625 42.875 40.578125 
Q 42.875 37.3125 41.28125 35.5 
Q 39.703125 33.6875 37.453125 33.6875 
Q 34.859375 33.6875 32.953125 35.34375 
Q 31.0625 37.015625 30.71875 37.203125 
Q 30.21875 37.5 29.59375 37.5 
Q 28.171875 37.5 26.90625 36.421875 
Q 24.90625 34.765625 23.875 31.6875 
Q 22.3125 26.953125 22.3125 21.234375 
L 22.3125 10.75 
L 22.359375 8.015625 
Q 22.359375 5.21875 22.703125 4.4375 
Q 23.296875 3.125 24.4375 2.515625 
Q 25.59375 1.90625 28.328125 1.765625 
L 28.328125 0 
L 3.65625 0 
L 3.65625 1.765625 
Q 6.640625 2 7.6875 3.390625 
Q 8.734375 4.78125 8.734375 10.75 
L 8.734375 35.984375 
Q 8.734375 39.890625 8.34375 40.96875 
Q 7.859375 42.328125 6.921875 42.96875 
Q 6 43.609375 3.65625 43.84375 
L 3.65625 45.65625 
z
" id="TimesNewRomanPS-BoldMT-72"/>
     <path d="M 28.5625 6.734375 
Q 20.21875 -0.640625 13.578125 -0.640625 
Q 9.671875 -0.640625 7.078125 1.921875 
Q 4.5 4.5 4.5 8.34375 
Q 4.5 13.578125 8.984375 17.75 
Q 13.484375 21.921875 28.5625 28.859375 
L 28.5625 33.453125 
Q 28.5625 38.625 28 39.96875 
Q 27.4375 41.3125 25.875 42.3125 
Q 24.3125 43.3125 22.359375 43.3125 
Q 19.1875 43.3125 17.140625 41.890625 
Q 15.875 41.015625 15.875 39.84375 
Q 15.875 38.8125 17.234375 37.3125 
Q 19.09375 35.203125 19.09375 33.25 
Q 19.09375 30.859375 17.3125 29.171875 
Q 15.53125 27.484375 12.640625 27.484375 
Q 9.578125 27.484375 7.5 29.34375 
Q 5.421875 31.203125 5.421875 33.6875 
Q 5.421875 37.203125 8.203125 40.40625 
Q 10.984375 43.609375 15.96875 45.3125 
Q 20.953125 47.015625 26.3125 47.015625 
Q 32.8125 47.015625 36.59375 44.25 
Q 40.375 41.5 41.5 38.28125 
Q 42.1875 36.234375 42.1875 28.859375 
L 42.1875 11.140625 
Q 42.1875 8.015625 42.421875 7.203125 
Q 42.671875 6.390625 43.15625 6 
Q 43.65625 5.609375 44.28125 5.609375 
Q 45.5625 5.609375 46.875 7.421875 
L 48.34375 6.25 
Q 45.90625 2.640625 43.28125 1 
Q 40.671875 -0.640625 37.359375 -0.640625 
Q 33.453125 -0.640625 31.25 1.1875 
Q 29.046875 3.03125 28.5625 6.734375 
z
M 28.5625 10.296875 
L 28.5625 25.59375 
Q 22.65625 22.125 19.78125 18.171875 
Q 17.875 15.53125 17.875 12.84375 
Q 17.875 10.59375 19.484375 8.890625 
Q 20.703125 7.5625 22.90625 7.5625 
Q 25.34375 7.5625 28.5625 10.296875 
z
" id="TimesNewRomanPS-BoldMT-61"/>
     <path d="M 14.359375 67.78125 
Q 17.53125 67.78125 19.71875 65.546875 
Q 21.921875 63.328125 21.921875 60.203125 
Q 21.921875 57.078125 19.703125 54.875 
Q 17.484375 52.6875 14.359375 52.6875 
Q 11.234375 52.6875 9.03125 54.875 
Q 6.84375 57.078125 6.84375 60.203125 
Q 6.84375 63.328125 9.03125 65.546875 
Q 11.234375 67.78125 14.359375 67.78125 
z
M 21.1875 45.65625 
L 21.1875 9.46875 
Q 21.1875 4.640625 22.3125 3.296875 
Q 23.4375 1.953125 26.703125 1.765625 
L 26.703125 0 
L 2.046875 0 
L 2.046875 1.765625 
Q 5.078125 1.859375 6.546875 3.515625 
Q 7.515625 4.640625 7.515625 9.46875 
L 7.515625 36.140625 
Q 7.515625 40.96875 6.390625 42.3125 
Q 5.28125 43.65625 2.046875 43.84375 
L 2.046875 45.65625 
z
" id="TimesNewRomanPS-BoldMT-69"/>
     <path d="M 24.90625 47.015625 
Q 30.859375 47.015625 35.984375 43.9375 
Q 41.109375 40.875 43.765625 35.203125 
Q 46.4375 29.546875 46.4375 22.796875 
Q 46.4375 13.09375 41.5 6.546875 
Q 35.546875 -1.375 25.046875 -1.375 
Q 14.75 -1.375 9.171875 5.859375 
Q 3.609375 13.09375 3.609375 22.609375 
Q 3.609375 32.421875 9.296875 39.71875 
Q 14.984375 47.015625 24.90625 47.015625 
z
M 25.09375 43.5625 
Q 22.609375 43.5625 20.828125 41.671875 
Q 19.046875 39.796875 18.484375 34.25 
Q 17.921875 28.71875 17.921875 18.84375 
Q 17.921875 13.625 18.609375 9.078125 
Q 19.140625 5.609375 20.890625 3.796875 
Q 22.65625 2 24.90625 2 
Q 27.09375 2 28.5625 3.21875 
Q 30.46875 4.890625 31.109375 7.859375 
Q 32.078125 12.5 32.078125 26.609375 
Q 32.078125 34.90625 31.140625 38 
Q 30.21875 41.109375 28.421875 42.53125 
Q 27.15625 43.5625 25.09375 43.5625 
z
" id="TimesNewRomanPS-BoldMT-6f"/>
     <path d="M 22.015625 45.65625 
L 22.015625 39.75 
Q 25.53125 43.5625 28.75 45.28125 
Q 31.984375 47.015625 35.6875 47.015625 
Q 40.140625 47.015625 43.0625 44.546875 
Q 46 42.09375 46.96875 38.421875 
Q 47.75 35.640625 47.75 27.734375 
L 47.75 9.96875 
Q 47.75 4.6875 48.703125 3.390625 
Q 49.65625 2.09375 52.6875 1.765625 
L 52.6875 0 
L 29.59375 0 
L 29.59375 1.765625 
Q 32.171875 2.09375 33.296875 3.90625 
Q 34.078125 5.125 34.078125 9.96875 
L 34.078125 30.28125 
Q 34.078125 35.890625 33.640625 37.34375 
Q 33.203125 38.8125 32.15625 39.625 
Q 31.109375 40.4375 29.828125 40.4375 
Q 25.640625 40.4375 22.015625 34.421875 
L 22.015625 9.96875 
Q 22.015625 4.828125 22.96875 3.453125 
Q 23.921875 2.09375 26.515625 1.765625 
L 26.515625 0 
L 3.421875 0 
L 3.421875 1.765625 
Q 6.296875 2.046875 7.515625 3.609375 
Q 8.34375 4.6875 8.34375 9.96875 
L 8.34375 35.75 
Q 8.34375 40.921875 7.390625 42.1875 
Q 6.453125 43.453125 3.421875 43.84375 
L 3.421875 45.65625 
z
" id="TimesNewRomanPS-BoldMT-6e"/>
     <path id="TimesNewRomanPS-BoldMT-20"/>
     <path d="M 23.390625 40.875 
L 23.390625 9.1875 
Q 23.390625 4.59375 24.359375 3.421875 
Q 25.921875 1.609375 30.125 1.765625 
L 30.125 0 
L 3.21875 0 
L 3.21875 1.765625 
Q 6.296875 1.8125 7.59375 2.46875 
Q 8.890625 3.125 9.375 4.296875 
Q 9.859375 5.46875 9.859375 9.1875 
L 9.859375 40.875 
L 3.21875 40.875 
L 3.21875 45.65625 
L 9.859375 45.65625 
L 9.859375 49.03125 
L 9.8125 51.3125 
Q 9.8125 58.34375 14.96875 63.03125 
Q 20.125 67.71875 28.90625 67.71875 
Q 34.90625 67.71875 37.8125 65.46875 
Q 40.71875 63.234375 40.71875 60.5 
Q 40.71875 58.296875 38.90625 56.6875 
Q 37.109375 55.078125 34.125 55.078125 
Q 31.59375 55.078125 30.09375 56.390625 
Q 28.609375 57.71875 28.609375 59.328125 
Q 28.609375 59.765625 28.90625 61.140625 
Q 29.109375 61.96875 29.109375 62.703125 
Q 29.109375 63.71875 28.515625 64.203125 
Q 27.734375 64.9375 26.609375 64.9375 
Q 25.203125 64.9375 24.25 63.765625 
Q 23.296875 62.59375 23.296875 60.015625 
L 23.390625 51.46875 
L 23.390625 45.65625 
L 30.125 45.65625 
L 30.125 40.875 
z
" id="TimesNewRomanPS-BoldMT-66"/>
     <path d="M 40.625 11.765625 
L 42.140625 10.59375 
Q 38.921875 4.546875 34.109375 1.578125 
Q 29.296875 -1.375 23.875 -1.375 
Q 14.75 -1.375 9.28125 5.515625 
Q 3.8125 12.40625 3.8125 22.078125 
Q 3.8125 31.390625 8.796875 38.484375 
Q 14.796875 47.015625 25.34375 47.015625 
Q 32.421875 47.015625 36.59375 43.453125 
Q 40.765625 39.890625 40.765625 35.5 
Q 40.765625 32.71875 39.078125 31.046875 
Q 37.40625 29.390625 34.671875 29.390625 
Q 31.78125 29.390625 29.90625 31.296875 
Q 28.03125 33.203125 27.59375 38.09375 
Q 27.296875 41.15625 26.171875 42.390625 
Q 25.046875 43.609375 23.53125 43.609375 
Q 21.1875 43.609375 19.53125 41.109375 
Q 17 37.359375 17 29.59375 
Q 17 23.140625 19.046875 17.25 
Q 21.09375 11.375 24.65625 8.5 
Q 27.34375 6.390625 31 6.390625 
Q 33.40625 6.390625 35.546875 7.515625 
Q 37.703125 8.640625 40.625 11.765625 
z
" id="TimesNewRomanPS-BoldMT-63"/>
     <path d="M 47.75 66.21875 
L 47.75 13.671875 
Q 47.75 8.34375 48.046875 7.375 
Q 48.4375 5.765625 49.53125 4.984375 
Q 50.640625 4.203125 53.375 4 
L 53.375 2.390625 
L 34.078125 -1.375 
L 34.078125 5.859375 
Q 30.609375 1.65625 27.90625 0.140625 
Q 25.203125 -1.375 21.78125 -1.375 
Q 13.03125 -1.375 7.953125 6.453125 
Q 3.859375 12.796875 3.859375 22.015625 
Q 3.859375 29.390625 6.390625 35.21875 
Q 8.9375 41.0625 13.359375 44.03125 
Q 17.78125 47.015625 22.859375 47.015625 
Q 26.125 47.015625 28.65625 45.75 
Q 31.203125 44.484375 34.078125 41.3125 
L 34.078125 55.078125 
Q 34.078125 60.296875 33.640625 61.375 
Q 33.0625 62.796875 31.890625 63.46875 
Q 30.71875 64.15625 27.484375 64.15625 
L 27.484375 66.21875 
z
M 34.078125 35.25 
Q 30.46875 42.1875 25.25 42.1875 
Q 23.4375 42.1875 22.265625 41.21875 
Q 20.453125 39.703125 19.3125 35.890625 
Q 18.171875 32.078125 18.171875 24.21875 
Q 18.171875 15.578125 19.4375 11.421875 
Q 20.703125 7.28125 22.90625 5.421875 
Q 24.03125 4.5 25.984375 4.5 
Q 30.28125 4.5 34.078125 11.234375 
z
" id="TimesNewRomanPS-BoldMT-64"/>
     <path d="M 21.046875 66.21875 
L 21.046875 41.0625 
Q 26.8125 47.015625 33.640625 47.015625 
Q 38.328125 47.015625 42.46875 44.25 
Q 46.625 41.5 48.96875 36.421875 
Q 51.3125 31.34375 51.3125 24.703125 
Q 51.3125 17.234375 48.328125 11.125 
Q 45.359375 5.03125 40.375 1.828125 
Q 35.40625 -1.375 29 -1.375 
Q 25.296875 -1.375 22.40625 -0.1875 
Q 19.53125 0.984375 16.75 3.609375 
L 9.1875 -1.3125 
L 7.515625 -1.3125 
L 7.515625 56.734375 
Q 7.515625 60.6875 7.171875 61.625 
Q 6.6875 62.984375 5.640625 63.640625 
Q 4.59375 64.3125 2.09375 64.40625 
L 2.09375 66.21875 
z
M 21.046875 36.71875 
L 21.046875 16.40625 
Q 21.046875 10.203125 21.34375 8.5 
Q 21.828125 5.609375 23.671875 3.828125 
Q 25.53125 2.046875 28.421875 2.046875 
Q 30.90625 2.046875 32.6875 3.46875 
Q 34.46875 4.890625 35.65625 9.078125 
Q 36.859375 13.28125 36.859375 24.21875 
Q 36.859375 34.71875 34.234375 38.625 
Q 32.328125 41.453125 29.109375 41.453125 
Q 24.90625 41.453125 21.046875 36.71875 
z
" id="TimesNewRomanPS-BoldMT-62"/>
     <path d="M 22.015625 66.21875 
L 22.015625 39.796875 
Q 25.78125 43.75 28.90625 45.375 
Q 32.03125 47.015625 35.40625 47.015625 
Q 39.703125 47.015625 42.75 44.578125 
Q 45.796875 42.140625 46.796875 38.84375 
Q 47.796875 35.546875 47.796875 27.734375 
L 47.796875 9.90625 
Q 47.796875 4.6875 48.765625 3.390625 
Q 49.75 2.09375 52.734375 1.765625 
L 52.734375 0 
L 29.59375 0 
L 29.59375 1.765625 
Q 32.03125 2.09375 33.25 3.71875 
Q 34.125 4.984375 34.125 9.90625 
L 34.125 30.28125 
Q 34.125 35.9375 33.6875 37.375 
Q 33.25 38.8125 32.203125 39.625 
Q 31.15625 40.4375 29.828125 40.4375 
Q 27.875 40.4375 26.015625 39.09375 
Q 24.171875 37.75 22.015625 34.375 
L 22.015625 9.90625 
Q 22.015625 5.03125 22.75 3.8125 
Q 23.6875 2.15625 26.5625 1.765625 
L 26.5625 0 
L 3.421875 0 
L 3.421875 1.765625 
Q 6.296875 2.046875 7.515625 3.609375 
Q 8.34375 4.6875 8.34375 9.90625 
L 8.34375 56.296875 
Q 8.34375 61.46875 7.390625 62.734375 
Q 6.453125 64.015625 3.421875 64.40625 
L 3.421875 66.21875 
z
" id="TimesNewRomanPS-BoldMT-68"/>
    </defs>
    <g transform="translate(117.555156 20.16)scale(0.14 -0.14)">
     <use xlink:href="#TimesNewRomanPS-BoldMT-49"/>
     <use x="38.916016" xlink:href="#TimesNewRomanPS-BoldMT-6c"/>
     <use x="66.699219" xlink:href="#TimesNewRomanPS-BoldMT-6c"/>
     <use x="94.482422" xlink:href="#TimesNewRomanPS-BoldMT-75"/>
     <use x="150.097656" xlink:href="#TimesNewRomanPS-BoldMT-73"/>
     <use x="189.013672" xlink:href="#TimesNewRomanPS-BoldMT-74"/>
     <use x="222.314453" xlink:href="#TimesNewRomanPS-BoldMT-72"/>
     <use x="266.699219" xlink:href="#TimesNewRomanPS-BoldMT-61"/>
     <use x="316.699219" xlink:href="#TimesNewRomanPS-BoldMT-74"/>
     <use x="350" xlink:href="#TimesNewRomanPS-BoldMT-69"/>
     <use x="377.783203" xlink:href="#TimesNewRomanPS-BoldMT-6f"/>
     <use x="427.783203" xlink:href="#TimesNewRomanPS-BoldMT-6e"/>
     <use x="483.398438" xlink:href="#TimesNewRomanPS-BoldMT-20"/>
     <use x="508.398438" xlink:href="#TimesNewRomanPS-BoldMT-6f"/>
     <use x="558.398438" xlink:href="#TimesNewRomanPS-BoldMT-66"/>
     <use x="591.699219" xlink:href="#TimesNewRomanPS-BoldMT-20"/>
     <use x="616.699219" xlink:href="#TimesNewRomanPS-BoldMT-63"/>
     <use x="661.083984" xlink:href="#TimesNewRomanPS-BoldMT-6f"/>
     <use x="711.083984" xlink:href="#TimesNewRomanPS-BoldMT-6e"/>
     <use x="766.699219" xlink:href="#TimesNewRomanPS-BoldMT-64"/>
     <use x="822.314453" xlink:href="#TimesNewRomanPS-BoldMT-69"/>
     <use x="850.097656" xlink:href="#TimesNewRomanPS-BoldMT-74"/>
     <use x="883.398438" xlink:href="#TimesNewRomanPS-BoldMT-69"/>
     <use x="911.181641" xlink:href="#TimesNewRomanPS-BoldMT-6f"/>
     <use x="961.181641" xlink:href="#TimesNewRomanPS-BoldMT-6e"/>
     <use x="1016.796875" xlink:href="#TimesNewRomanPS-BoldMT-61"/>
     <use x="1066.796875" xlink:href="#TimesNewRomanPS-BoldMT-6c"/>
     <use x="1094.580078" xlink:href="#TimesNewRomanPS-BoldMT-20"/>
     <use x="1119.580078" xlink:href="#TimesNewRomanPS-BoldMT-64"/>
     <use x="1175.195312" xlink:href="#TimesNewRomanPS-BoldMT-69"/>
     <use x="1202.978516" xlink:href="#TimesNewRomanPS-BoldMT-73"/>
     <use x="1241.894531" xlink:href="#TimesNewRomanPS-BoldMT-74"/>
     <use x="1275.195312" xlink:href="#TimesNewRomanPS-BoldMT-72"/>
     <use x="1319.580078" xlink:href="#TimesNewRomanPS-BoldMT-69"/>
     <use x="1347.363281" xlink:href="#TimesNewRomanPS-BoldMT-62"/>
     <use x="1402.978516" xlink:href="#TimesNewRomanPS-BoldMT-75"/>
     <use x="1458.59375" xlink:href="#TimesNewRomanPS-BoldMT-74"/>
     <use x="1491.894531" xlink:href="#TimesNewRomanPS-BoldMT-69"/>
     <use x="1519.677734" xlink:href="#TimesNewRomanPS-BoldMT-6f"/>
     <use x="1569.677734" xlink:href="#TimesNewRomanPS-BoldMT-6e"/>
     <use x="1625.292969" xlink:href="#TimesNewRomanPS-BoldMT-20"/>
     <use x="1650.292969" xlink:href="#TimesNewRomanPS-BoldMT-73"/>
     <use x="1689.208984" xlink:href="#TimesNewRomanPS-BoldMT-68"/>
     <use x="1744.824219" xlink:href="#TimesNewRomanPS-BoldMT-69"/>
     <use x="1772.607422" xlink:href="#TimesNewRomanPS-BoldMT-66"/>
     <use x="1805.908203" xlink:href="#TimesNewRomanPS-BoldMT-74"/>
    </g>
   </g>
  </g>
 </g>
 <defs>
  <clipPath id="p1657639427">
   <rect height="277.48" width="402.37" x="45.11" y="26.16"/>
  </clipPath>
 </defs>
</svg>
