<?xml version="1.0" encoding="utf-8" standalone="no"?>
<!DOCTYPE svg PUBLIC "-//W3C//DTD SVG 1.1//EN"
  "http://www.w3.org/Graphics/SVG/1.1/DTD/svg11.dtd">
<!-- Created with matplotlib (http://matplotlib.org/) -->
<svg height="360pt" version="1.1" viewBox="0 0 504 360" width="504pt" xmlns="http://www.w3.org/2000/svg" xmlns:xlink="http://www.w3.org/1999/xlink">
 <defs>
  <style type="text/css">
*{stroke-linecap:butt;stroke-linejoin:round;}
  </style>
 </defs>
 <g id="figure_1">
  <g id="patch_1">
   <path d="M 0 360 
L 504 360 
L 504 0 
L 0 0 
z
" style="fill:#ffffff;"/>
  </g>
  <g id="axes_1">
   <g id="patch_2">
    <path d="M 61.67 316.6 
L 490.68 316.6 
L 490.68 25.44 
L 61.67 25.44 
z
" style="fill:#ffffff;"/>
   </g>
   <g id="PathCollection_1">
    <defs>
     <path d="M 0 1.118034 
C 0.296506 1.118034 0.580908 1.000231 0.790569 0.790569 
C 1.000231 0.580908 1.118034 0.296506 1.118034 0 
C 1.118034 -0.296506 1.000231 -0.580908 0.790569 -0.790569 
C 0.580908 -1.000231 0.296506 -1.118034 0 -1.118034 
C -0.296506 -1.118034 -0.580908 -1.000231 -0.790569 -0.790569 
C -1.000231 -0.580908 -1.118034 -0.296506 -1.118034 0 
C -1.118034 0.296506 -1.000231 0.580908 -0.790569 0.790569 
C -0.580908 1.000231 -0.296506 1.118034 0 1.118034 
z
" id="m8e9536757d" style="stroke:#000080;"/>
    </defs>
    <g clip-path="url(#pbc53590510)">
     <use style="fill:#000080;stroke:#000080;" x="81.972568" xlink:href="#m8e9536757d" y="37.0864"/>
     <use style="fill:#000080;stroke:#000080;" x="84.656754" xlink:href="#m8e9536757d" y="37.0864"/>
     <use style="fill:#000080;stroke:#000080;" x="87.34094" xlink:href="#m8e9536757d" y="37.0864"/>
     <use style="fill:#000080;stroke:#000080;" x="87.463257" xlink:href="#m8e9536757d" y="37.0864"/>
     <use style="fill:#000080;stroke:#000080;" x="90.025126" xlink:href="#m8e9536757d" y="37.0864"/>
     <use style="fill:#000080;stroke:#000080;" x="92.709312" xlink:href="#m8e9536757d" y="37.0864"/>
     <use style="fill:#000080;stroke:#000080;" x="95.393498" xlink:href="#m8e9536757d" y="37.0864"/>
     <use style="fill:#000080;stroke:#000080;" x="96.93029" xlink:href="#m8e9536757d" y="37.0864"/>
     <use style="fill:#000080;stroke:#000080;" x="98.077684" xlink:href="#m8e9536757d" y="37.0864"/>
     <use style="fill:#000080;stroke:#000080;" x="100.761871" xlink:href="#m8e9536757d" y="37.0864"/>
     <use style="fill:#000080;stroke:#000080;" x="103.446057" xlink:href="#m8e9536757d" y="37.0864"/>
     <use style="fill:#000080;stroke:#000080;" x="106.130243" xlink:href="#m8e9536757d" y="37.0864"/>
     <use style="fill:#000080;stroke:#000080;" x="107.575089" xlink:href="#m8e9536757d" y="37.0864"/>
     <use style="fill:#000080;stroke:#000080;" x="108.814429" xlink:href="#m8e9536757d" y="37.0864"/>
     <use style="fill:#000080;stroke:#000080;" x="111.498615" xlink:href="#m8e9536757d" y="37.0864"/>
     <use style="fill:#000080;stroke:#000080;" x="114.182801" xlink:href="#m8e9536757d" y="37.0864"/>
     <use style="fill:#000080;stroke:#000080;" x="116.664405" xlink:href="#m8e9536757d" y="37.0864"/>
     <use style="fill:#000080;stroke:#000080;" x="116.866987" xlink:href="#m8e9536757d" y="37.0864"/>
     <use style="fill:#000080;stroke:#000080;" x="118.056803" xlink:href="#m8e9536757d" y="37.0864"/>
     <use style="fill:#000080;stroke:#000080;" x="119.551173" xlink:href="#m8e9536757d" y="37.0864"/>
     <use style="fill:#000080;stroke:#000080;" x="122.235359" xlink:href="#m8e9536757d" y="37.0864"/>
    </g>
   </g>
   <g id="PathCollection_2">
    <defs>
     <path d="M 0 1.118034 
C 0.296506 1.118034 0.580908 1.000231 0.790569 0.790569 
C 1.000231 0.580908 1.118034 0.296506 1.118034 0 
C 1.118034 -0.296506 1.000231 -0.580908 0.790569 -0.790569 
C 0.580908 -1.000231 0.296506 -1.118034 0 -1.118034 
C -0.296506 -1.118034 -0.580908 -1.000231 -0.790569 -0.790569 
C -1.000231 -0.580908 -1.118034 -0.296506 -1.118034 0 
C -1.118034 0.296506 -1.000231 0.580908 -0.790569 0.790569 
C -0.580908 1.000231 -0.296506 1.118034 0 1.118034 
z
" id="m6bff74484a" style="stroke:#00bfbf;"/>
    </defs>
    <g clip-path="url(#pbc53590510)">
     <use style="fill:#00bfbf;stroke:#00bfbf;" x="276.304469" xlink:href="#m6bff74484a" y="37.0864"/>
     <use style="fill:#00bfbf;stroke:#00bfbf;" x="279.047359" xlink:href="#m6bff74484a" y="37.0864"/>
     <use style="fill:#00bfbf;stroke:#00bfbf;" x="299.136848" xlink:href="#m6bff74484a" y="37.0864"/>
     <use style="fill:#00bfbf;stroke:#00bfbf;" x="308.169221" xlink:href="#m6bff74484a" y="37.0864"/>
    </g>
   </g>
   <g id="PathCollection_3">
    <defs>
     <path d="M 0 1.118034 
C 0.296506 1.118034 0.580908 1.000231 0.790569 0.790569 
C 1.000231 0.580908 1.118034 0.296506 1.118034 0 
C 1.118034 -0.296506 1.000231 -0.580908 0.790569 -0.790569 
C 0.580908 -1.000231 0.296506 -1.118034 0 -1.118034 
C -0.296506 -1.118034 -0.580908 -1.000231 -0.790569 -0.790569 
C -1.000231 -0.580908 -1.118034 -0.296506 -1.118034 0 
C -1.118034 0.296506 -1.000231 0.580908 -0.790569 0.790569 
C -0.580908 1.000231 -0.296506 1.118034 0 1.118034 
z
" id="m1b765cb33c" style="stroke:#6495ed;"/>
    </defs>
    <g clip-path="url(#pbc53590510)">
     <use style="fill:#6495ed;stroke:#6495ed;" x="389.718192" xlink:href="#m1b765cb33c" y="37.0864"/>
     <use style="fill:#6495ed;stroke:#6495ed;" x="393.438103" xlink:href="#m1b765cb33c" y="37.0864"/>
     <use style="fill:#6495ed;stroke:#6495ed;" x="401.217966" xlink:href="#m1b765cb33c" y="37.0864"/>
     <use style="fill:#6495ed;stroke:#6495ed;" x="420.992571" xlink:href="#m1b765cb33c" y="37.0864"/>
     <use style="fill:#6495ed;stroke:#6495ed;" x="438.537689" xlink:href="#m1b765cb33c" y="37.0864"/>
    </g>
   </g>
   <g id="PathCollection_4">
    <defs>
     <path d="M 0 1.118034 
C 0.296506 1.118034 0.580908 1.000231 0.790569 0.790569 
C 1.000231 0.580908 1.118034 0.296506 1.118034 0 
C 1.118034 -0.296506 1.000231 -0.580908 0.790569 -0.790569 
C 0.580908 -1.000231 0.296506 -1.118034 0 -1.118034 
C -0.296506 -1.118034 -0.580908 -1.000231 -0.790569 -0.790569 
C -1.000231 -0.580908 -1.118034 -0.296506 -1.118034 0 
C -1.118034 0.296506 -1.000231 0.580908 -0.790569 0.790569 
C -0.580908 1.000231 -0.296506 1.118034 0 1.118034 
z
" id="m889d7425cb" style="stroke:#ffd700;"/>
    </defs>
    <g clip-path="url(#pbc53590510)">
     <use style="fill:#ffd700;stroke:#ffd700;" x="124.919545" xlink:href="#m889d7425cb" y="37.0864"/>
     <use style="fill:#ffd700;stroke:#ffd700;" x="127.603731" xlink:href="#m889d7425cb" y="37.0864"/>
     <use style="fill:#ffd700;stroke:#ffd700;" x="130.287917" xlink:href="#m889d7425cb" y="37.0864"/>
     <use style="fill:#ffd700;stroke:#ffd700;" x="132.972103" xlink:href="#m889d7425cb" y="37.0864"/>
     <use style="fill:#ffd700;stroke:#ffd700;" x="135.656289" xlink:href="#m889d7425cb" y="37.0864"/>
     <use style="fill:#ffd700;stroke:#ffd700;" x="138.340475" xlink:href="#m889d7425cb" y="37.0864"/>
     <use style="fill:#ffd700;stroke:#ffd700;" x="141.024661" xlink:href="#m889d7425cb" y="37.0864"/>
     <use style="fill:#ffd700;stroke:#ffd700;" x="143.708847" xlink:href="#m889d7425cb" y="37.0864"/>
     <use style="fill:#ffd700;stroke:#ffd700;" x="146.393033" xlink:href="#m889d7425cb" y="37.0864"/>
     <use style="fill:#ffd700;stroke:#ffd700;" x="146.494904" xlink:href="#m889d7425cb" y="37.0864"/>
     <use style="fill:#ffd700;stroke:#ffd700;" x="149.077219" xlink:href="#m889d7425cb" y="37.0864"/>
     <use style="fill:#ffd700;stroke:#ffd700;" x="151.761405" xlink:href="#m889d7425cb" y="37.0864"/>
     <use style="fill:#ffd700;stroke:#ffd700;" x="154.445592" xlink:href="#m889d7425cb" y="37.0864"/>
     <use style="fill:#ffd700;stroke:#ffd700;" x="157.129778" xlink:href="#m889d7425cb" y="37.0864"/>
     <use style="fill:#ffd700;stroke:#ffd700;" x="159.813964" xlink:href="#m889d7425cb" y="37.0864"/>
     <use style="fill:#ffd700;stroke:#ffd700;" x="170.03842" xlink:href="#m889d7425cb" y="37.0864"/>
     <use style="fill:#ffd700;stroke:#ffd700;" x="170.564102" xlink:href="#m889d7425cb" y="37.0864"/>
    </g>
   </g>
   <g id="PathCollection_5">
    <defs>
     <path d="M 0 1.118034 
C 0.296506 1.118034 0.580908 1.000231 0.790569 0.790569 
C 1.000231 0.580908 1.118034 0.296506 1.118034 0 
C 1.118034 -0.296506 1.000231 -0.580908 0.790569 -0.790569 
C 0.580908 -1.000231 0.296506 -1.118034 0 -1.118034 
C -0.296506 -1.118034 -0.580908 -1.000231 -0.790569 -0.790569 
C -1.000231 -0.580908 -1.118034 -0.296506 -1.118034 0 
C -1.118034 0.296506 -1.000231 0.580908 -0.790569 0.790569 
C -0.580908 1.000231 -0.296506 1.118034 0 1.118034 
z
" id="mf2d19eba0e" style="stroke:#ff8c00;"/>
    </defs>
    <g clip-path="url(#pbc53590510)">
     <use style="fill:#ff8c00;stroke:#ff8c00;" x="189.727272" xlink:href="#mf2d19eba0e" y="37.0864"/>
     <use style="fill:#ff8c00;stroke:#ff8c00;" x="211.591415" xlink:href="#mf2d19eba0e" y="37.0864"/>
     <use style="fill:#ff8c00;stroke:#ff8c00;" x="221.332753" xlink:href="#mf2d19eba0e" y="37.0864"/>
     <use style="fill:#ff8c00;stroke:#ff8c00;" x="223.311035" xlink:href="#mf2d19eba0e" y="37.0864"/>
     <use style="fill:#ff8c00;stroke:#ff8c00;" x="224.236293" xlink:href="#mf2d19eba0e" y="37.0864"/>
     <use style="fill:#ff8c00;stroke:#ff8c00;" x="233.175493" xlink:href="#mf2d19eba0e" y="37.0864"/>
     <use style="fill:#ff8c00;stroke:#ff8c00;" x="241.451002" xlink:href="#mf2d19eba0e" y="37.0864"/>
     <use style="fill:#ff8c00;stroke:#ff8c00;" x="250.440015" xlink:href="#mf2d19eba0e" y="37.0864"/>
    </g>
   </g>
   <g id="PathCollection_6">
    <g clip-path="url(#pbc53590510)">
     <use style="fill:#000080;stroke:#000080;" x="320.362535" xlink:href="#m8e9536757d" y="37.0864"/>
     <use style="fill:#000080;stroke:#000080;" x="329.895962" xlink:href="#m8e9536757d" y="37.0864"/>
     <use style="fill:#000080;stroke:#000080;" x="333.58421" xlink:href="#m8e9536757d" y="37.0864"/>
     <use style="fill:#000080;stroke:#000080;" x="335.395936" xlink:href="#m8e9536757d" y="37.0864"/>
     <use style="fill:#000080;stroke:#000080;" x="357.625809" xlink:href="#m8e9536757d" y="37.0864"/>
    </g>
   </g>
   <g id="PathCollection_7">
    <defs>
     <path d="M 0 5 
C 1.326016 5 2.597899 4.473168 3.535534 3.535534 
C 4.473168 2.597899 5 1.326016 5 0 
C 5 -1.326016 4.473168 -2.597899 3.535534 -3.535534 
C 2.597899 -4.473168 1.326016 -5 0 -5 
C -1.326016 -5 -2.597899 -4.473168 -3.535534 -3.535534 
C -4.473168 -2.597899 -5 -1.326016 -5 0 
C -5 1.326016 -4.473168 2.597899 -3.535534 3.535534 
C -2.597899 4.473168 -1.326016 5 0 5 
z
" id="mef95e3c3ac" style="stroke:#0000ff;"/>
    </defs>
    <g clip-path="url(#pbc53590510)">
     <use style="fill:#0000ff;stroke:#0000ff;" x="237.655359" xlink:href="#mef95e3c3ac" y="188.850832"/>
     <use style="fill:#0000ff;stroke:#0000ff;" x="289.549623" xlink:href="#mef95e3c3ac" y="206.439485"/>
     <use style="fill:#0000ff;stroke:#0000ff;" x="341.443886" xlink:href="#mef95e3c3ac" y="221.459333"/>
     <use style="fill:#0000ff;stroke:#0000ff;" x="393.33815" xlink:href="#mef95e3c3ac" y="214.898355"/>
    </g>
   </g>
   <g id="matplotlib.axis_1">
    <g id="xtick_1">
     <g id="line2d_1">
      <defs>
       <path d="M 0 0 
L 0 3.5 
" id="m0bb58a8862" style="stroke:#000000;stroke-width:0.8;"/>
      </defs>
      <g>
       <use style="stroke:#000000;stroke-width:0.8;" x="81.972568" xlink:href="#m0bb58a8862" y="316.6"/>
      </g>
     </g>
     <g id="text_1">
      <!-- 0.0 -->
      <defs>
       <path d="M 31.78125 66.40625 
Q 24.171875 66.40625 20.328125 58.90625 
Q 16.5 51.421875 16.5 36.375 
Q 16.5 21.390625 20.328125 13.890625 
Q 24.171875 6.390625 31.78125 6.390625 
Q 39.453125 6.390625 43.28125 13.890625 
Q 47.125 21.390625 47.125 36.375 
Q 47.125 51.421875 43.28125 58.90625 
Q 39.453125 66.40625 31.78125 66.40625 
z
M 31.78125 74.21875 
Q 44.046875 74.21875 50.515625 64.515625 
Q 56.984375 54.828125 56.984375 36.375 
Q 56.984375 17.96875 50.515625 8.265625 
Q 44.046875 -1.421875 31.78125 -1.421875 
Q 19.53125 -1.421875 13.0625 8.265625 
Q 6.59375 17.96875 6.59375 36.375 
Q 6.59375 54.828125 13.0625 64.515625 
Q 19.53125 74.21875 31.78125 74.21875 
z
" id="DejaVuSans-30"/>
       <path d="M 10.6875 12.40625 
L 21 12.40625 
L 21 0 
L 10.6875 0 
z
" id="DejaVuSans-2e"/>
      </defs>
      <g transform="translate(72.430693 332.718125)scale(0.12 -0.12)">
       <use xlink:href="#DejaVuSans-30"/>
       <use x="63.623047" xlink:href="#DejaVuSans-2e"/>
       <use x="95.410156" xlink:href="#DejaVuSans-30"/>
      </g>
     </g>
    </g>
    <g id="xtick_2">
     <g id="line2d_2">
      <g>
       <use style="stroke:#000000;stroke-width:0.8;" x="159.813964" xlink:href="#m0bb58a8862" y="316.6"/>
      </g>
     </g>
     <g id="text_2">
      <!-- 0.2 -->
      <defs>
       <path d="M 19.1875 8.296875 
L 53.609375 8.296875 
L 53.609375 0 
L 7.328125 0 
L 7.328125 8.296875 
Q 12.9375 14.109375 22.625 23.890625 
Q 32.328125 33.6875 34.8125 36.53125 
Q 39.546875 41.84375 41.421875 45.53125 
Q 43.3125 49.21875 43.3125 52.78125 
Q 43.3125 58.59375 39.234375 62.25 
Q 35.15625 65.921875 28.609375 65.921875 
Q 23.96875 65.921875 18.8125 64.3125 
Q 13.671875 62.703125 7.8125 59.421875 
L 7.8125 69.390625 
Q 13.765625 71.78125 18.9375 73 
Q 24.125 74.21875 28.421875 74.21875 
Q 39.75 74.21875 46.484375 68.546875 
Q 53.21875 62.890625 53.21875 53.421875 
Q 53.21875 48.921875 51.53125 44.890625 
Q 49.859375 40.875 45.40625 35.40625 
Q 44.1875 33.984375 37.640625 27.21875 
Q 31.109375 20.453125 19.1875 8.296875 
z
" id="DejaVuSans-32"/>
      </defs>
      <g transform="translate(150.272089 332.718125)scale(0.12 -0.12)">
       <use xlink:href="#DejaVuSans-30"/>
       <use x="63.623047" xlink:href="#DejaVuSans-2e"/>
       <use x="95.410156" xlink:href="#DejaVuSans-32"/>
      </g>
     </g>
    </g>
    <g id="xtick_3">
     <g id="line2d_3">
      <g>
       <use style="stroke:#000000;stroke-width:0.8;" x="237.655359" xlink:href="#m0bb58a8862" y="316.6"/>
      </g>
     </g>
     <g id="text_3">
      <!-- 0.4 -->
      <defs>
       <path d="M 37.796875 64.3125 
L 12.890625 25.390625 
L 37.796875 25.390625 
z
M 35.203125 72.90625 
L 47.609375 72.90625 
L 47.609375 25.390625 
L 58.015625 25.390625 
L 58.015625 17.1875 
L 47.609375 17.1875 
L 47.609375 0 
L 37.796875 0 
L 37.796875 17.1875 
L 4.890625 17.1875 
L 4.890625 26.703125 
z
" id="DejaVuSans-34"/>
      </defs>
      <g transform="translate(228.113484 332.718125)scale(0.12 -0.12)">
       <use xlink:href="#DejaVuSans-30"/>
       <use x="63.623047" xlink:href="#DejaVuSans-2e"/>
       <use x="95.410156" xlink:href="#DejaVuSans-34"/>
      </g>
     </g>
    </g>
    <g id="xtick_4">
     <g id="line2d_4">
      <g>
       <use style="stroke:#000000;stroke-width:0.8;" x="315.496755" xlink:href="#m0bb58a8862" y="316.6"/>
      </g>
     </g>
     <g id="text_4">
      <!-- 0.6 -->
      <defs>
       <path d="M 33.015625 40.375 
Q 26.375 40.375 22.484375 35.828125 
Q 18.609375 31.296875 18.609375 23.390625 
Q 18.609375 15.53125 22.484375 10.953125 
Q 26.375 6.390625 33.015625 6.390625 
Q 39.65625 6.390625 43.53125 10.953125 
Q 47.40625 15.53125 47.40625 23.390625 
Q 47.40625 31.296875 43.53125 35.828125 
Q 39.65625 40.375 33.015625 40.375 
z
M 52.59375 71.296875 
L 52.59375 62.3125 
Q 48.875 64.0625 45.09375 64.984375 
Q 41.3125 65.921875 37.59375 65.921875 
Q 27.828125 65.921875 22.671875 59.328125 
Q 17.53125 52.734375 16.796875 39.40625 
Q 19.671875 43.65625 24.015625 45.921875 
Q 28.375 48.1875 33.59375 48.1875 
Q 44.578125 48.1875 50.953125 41.515625 
Q 57.328125 34.859375 57.328125 23.390625 
Q 57.328125 12.15625 50.6875 5.359375 
Q 44.046875 -1.421875 33.015625 -1.421875 
Q 20.359375 -1.421875 13.671875 8.265625 
Q 6.984375 17.96875 6.984375 36.375 
Q 6.984375 53.65625 15.1875 63.9375 
Q 23.390625 74.21875 37.203125 74.21875 
Q 40.921875 74.21875 44.703125 73.484375 
Q 48.484375 72.75 52.59375 71.296875 
z
" id="DejaVuSans-36"/>
      </defs>
      <g transform="translate(305.95488 332.718125)scale(0.12 -0.12)">
       <use xlink:href="#DejaVuSans-30"/>
       <use x="63.623047" xlink:href="#DejaVuSans-2e"/>
       <use x="95.410156" xlink:href="#DejaVuSans-36"/>
      </g>
     </g>
    </g>
    <g id="xtick_5">
     <g id="line2d_5">
      <g>
       <use style="stroke:#000000;stroke-width:0.8;" x="393.33815" xlink:href="#m0bb58a8862" y="316.6"/>
      </g>
     </g>
     <g id="text_5">
      <!-- 0.8 -->
      <defs>
       <path d="M 31.78125 34.625 
Q 24.75 34.625 20.71875 30.859375 
Q 16.703125 27.09375 16.703125 20.515625 
Q 16.703125 13.921875 20.71875 10.15625 
Q 24.75 6.390625 31.78125 6.390625 
Q 38.8125 6.390625 42.859375 10.171875 
Q 46.921875 13.96875 46.921875 20.515625 
Q 46.921875 27.09375 42.890625 30.859375 
Q 38.875 34.625 31.78125 34.625 
z
M 21.921875 38.8125 
Q 15.578125 40.375 12.03125 44.71875 
Q 8.5 49.078125 8.5 55.328125 
Q 8.5 64.0625 14.71875 69.140625 
Q 20.953125 74.21875 31.78125 74.21875 
Q 42.671875 74.21875 48.875 69.140625 
Q 55.078125 64.0625 55.078125 55.328125 
Q 55.078125 49.078125 51.53125 44.71875 
Q 48 40.375 41.703125 38.8125 
Q 48.828125 37.15625 52.796875 32.3125 
Q 56.78125 27.484375 56.78125 20.515625 
Q 56.78125 9.90625 50.3125 4.234375 
Q 43.84375 -1.421875 31.78125 -1.421875 
Q 19.734375 -1.421875 13.25 4.234375 
Q 6.78125 9.90625 6.78125 20.515625 
Q 6.78125 27.484375 10.78125 32.3125 
Q 14.796875 37.15625 21.921875 38.8125 
z
M 18.3125 54.390625 
Q 18.3125 48.734375 21.84375 45.5625 
Q 25.390625 42.390625 31.78125 42.390625 
Q 38.140625 42.390625 41.71875 45.5625 
Q 45.3125 48.734375 45.3125 54.390625 
Q 45.3125 60.0625 41.71875 63.234375 
Q 38.140625 66.40625 31.78125 66.40625 
Q 25.390625 66.40625 21.84375 63.234375 
Q 18.3125 60.0625 18.3125 54.390625 
z
" id="DejaVuSans-38"/>
      </defs>
      <g transform="translate(383.796275 332.718125)scale(0.12 -0.12)">
       <use xlink:href="#DejaVuSans-30"/>
       <use x="63.623047" xlink:href="#DejaVuSans-2e"/>
       <use x="95.410156" xlink:href="#DejaVuSans-38"/>
      </g>
     </g>
    </g>
    <g id="xtick_6">
     <g id="line2d_6">
      <g>
       <use style="stroke:#000000;stroke-width:0.8;" x="471.179545" xlink:href="#m0bb58a8862" y="316.6"/>
      </g>
     </g>
     <g id="text_6">
      <!-- 1.0 -->
      <defs>
       <path d="M 12.40625 8.296875 
L 28.515625 8.296875 
L 28.515625 63.921875 
L 10.984375 60.40625 
L 10.984375 69.390625 
L 28.421875 72.90625 
L 38.28125 72.90625 
L 38.28125 8.296875 
L 54.390625 8.296875 
L 54.390625 0 
L 12.40625 0 
z
" id="DejaVuSans-31"/>
      </defs>
      <g transform="translate(461.63767 332.718125)scale(0.12 -0.12)">
       <use xlink:href="#DejaVuSans-31"/>
       <use x="63.623047" xlink:href="#DejaVuSans-2e"/>
       <use x="95.410156" xlink:href="#DejaVuSans-30"/>
      </g>
     </g>
    </g>
    <g id="text_7">
     <!-- X -->
     <defs>
      <path d="M 6.296875 72.90625 
L 16.890625 72.90625 
L 35.015625 45.796875 
L 53.21875 72.90625 
L 63.8125 72.90625 
L 40.375 37.890625 
L 65.375 0 
L 54.78125 0 
L 34.28125 31 
L 13.625 0 
L 2.984375 0 
L 29 38.921875 
z
" id="DejaVuSans-58"/>
     </defs>
     <g transform="translate(272.065 348.331875)scale(0.12 -0.12)">
      <use xlink:href="#DejaVuSans-58"/>
     </g>
    </g>
   </g>
   <g id="matplotlib.axis_2">
    <g id="ytick_1">
     <g id="line2d_7">
      <defs>
       <path d="M 0 0 
L -3.5 0 
" id="m4cd99c6e60" style="stroke:#000000;stroke-width:0.8;"/>
      </defs>
      <g>
       <use style="stroke:#000000;stroke-width:0.8;" x="61.67" xlink:href="#m4cd99c6e60" y="316.6"/>
      </g>
     </g>
     <g id="text_8">
      <!-- −2 -->
      <defs>
       <path d="M 10.59375 35.5 
L 73.1875 35.5 
L 73.1875 27.203125 
L 10.59375 27.203125 
z
" id="DejaVuSans-2212"/>
      </defs>
      <g transform="translate(36.979375 321.159063)scale(0.12 -0.12)">
       <use xlink:href="#DejaVuSans-2212"/>
       <use x="83.789062" xlink:href="#DejaVuSans-32"/>
      </g>
     </g>
    </g>
    <g id="ytick_2">
     <g id="line2d_8">
      <g>
       <use style="stroke:#000000;stroke-width:0.8;" x="61.67" xlink:href="#m4cd99c6e60" y="258.368"/>
      </g>
     </g>
     <g id="text_9">
      <!-- −1 -->
      <g transform="translate(36.979375 262.927062)scale(0.12 -0.12)">
       <use xlink:href="#DejaVuSans-2212"/>
       <use x="83.789062" xlink:href="#DejaVuSans-31"/>
      </g>
     </g>
    </g>
    <g id="ytick_3">
     <g id="line2d_9">
      <g>
       <use style="stroke:#000000;stroke-width:0.8;" x="61.67" xlink:href="#m4cd99c6e60" y="200.136"/>
      </g>
     </g>
     <g id="text_10">
      <!-- 0 -->
      <g transform="translate(47.035 204.695063)scale(0.12 -0.12)">
       <use xlink:href="#DejaVuSans-30"/>
      </g>
     </g>
    </g>
    <g id="ytick_4">
     <g id="line2d_10">
      <g>
       <use style="stroke:#000000;stroke-width:0.8;" x="61.67" xlink:href="#m4cd99c6e60" y="141.904"/>
      </g>
     </g>
     <g id="text_11">
      <!-- 1 -->
      <g transform="translate(47.035 146.463063)scale(0.12 -0.12)">
       <use xlink:href="#DejaVuSans-31"/>
      </g>
     </g>
    </g>
    <g id="ytick_5">
     <g id="line2d_11">
      <g>
       <use style="stroke:#000000;stroke-width:0.8;" x="61.67" xlink:href="#m4cd99c6e60" y="83.672"/>
      </g>
     </g>
     <g id="text_12">
      <!-- 2 -->
      <g transform="translate(47.035 88.231062)scale(0.12 -0.12)">
       <use xlink:href="#DejaVuSans-32"/>
      </g>
     </g>
    </g>
    <g id="ytick_6">
     <g id="line2d_12">
      <g>
       <use style="stroke:#000000;stroke-width:0.8;" x="61.67" xlink:href="#m4cd99c6e60" y="25.44"/>
      </g>
     </g>
     <g id="text_13">
      <!-- 3 -->
      <defs>
       <path d="M 40.578125 39.3125 
Q 47.65625 37.796875 51.625 33 
Q 55.609375 28.21875 55.609375 21.1875 
Q 55.609375 10.40625 48.1875 4.484375 
Q 40.765625 -1.421875 27.09375 -1.421875 
Q 22.515625 -1.421875 17.65625 -0.515625 
Q 12.796875 0.390625 7.625 2.203125 
L 7.625 11.71875 
Q 11.71875 9.328125 16.59375 8.109375 
Q 21.484375 6.890625 26.8125 6.890625 
Q 36.078125 6.890625 40.9375 10.546875 
Q 45.796875 14.203125 45.796875 21.1875 
Q 45.796875 27.640625 41.28125 31.265625 
Q 36.765625 34.90625 28.71875 34.90625 
L 20.21875 34.90625 
L 20.21875 43.015625 
L 29.109375 43.015625 
Q 36.375 43.015625 40.234375 45.921875 
Q 44.09375 48.828125 44.09375 54.296875 
Q 44.09375 59.90625 40.109375 62.90625 
Q 36.140625 65.921875 28.71875 65.921875 
Q 24.65625 65.921875 20.015625 65.03125 
Q 15.375 64.15625 9.8125 62.3125 
L 9.8125 71.09375 
Q 15.4375 72.65625 20.34375 73.4375 
Q 25.25 74.21875 29.59375 74.21875 
Q 40.828125 74.21875 47.359375 69.109375 
Q 53.90625 64.015625 53.90625 55.328125 
Q 53.90625 49.265625 50.4375 45.09375 
Q 46.96875 40.921875 40.578125 39.3125 
z
" id="DejaVuSans-33"/>
      </defs>
      <g transform="translate(47.035 29.999062)scale(0.12 -0.12)">
       <use xlink:href="#DejaVuSans-33"/>
      </g>
     </g>
    </g>
    <g id="text_14">
     <!-- Y -->
     <defs>
      <path d="M -0.203125 72.90625 
L 10.40625 72.90625 
L 30.609375 42.921875 
L 50.6875 72.90625 
L 61.28125 72.90625 
L 35.5 34.71875 
L 35.5 0 
L 25.59375 0 
L 25.59375 34.71875 
z
" id="DejaVuSans-59"/>
     </defs>
     <g transform="translate(30.48375 174.684687)rotate(-90)scale(0.12 -0.12)">
      <use xlink:href="#DejaVuSans-59"/>
     </g>
    </g>
   </g>
   <g id="line2d_13">
    <defs>
     <path d="M 0 1.5 
C 0.397805 1.5 0.77937 1.341951 1.06066 1.06066 
C 1.341951 0.77937 1.5 0.397805 1.5 0 
C 1.5 -0.397805 1.341951 -0.77937 1.06066 -1.06066 
C 0.77937 -1.341951 0.397805 -1.5 0 -1.5 
C -0.397805 -1.5 -0.77937 -1.341951 -1.06066 -1.06066 
C -1.341951 -0.77937 -1.5 -0.397805 -1.5 0 
C -1.5 0.397805 -1.341951 0.77937 -1.06066 1.06066 
C -0.77937 1.341951 -0.397805 1.5 0 1.5 
z
" id="m08a8515cb8" style="stroke:#ff0000;"/>
    </defs>
    <g clip-path="url(#pbc53590510)">
     <use style="fill:#ff0000;stroke:#ff0000;" x="81.972568" xlink:href="#m08a8515cb8" y="141.904"/>
     <use style="fill:#ff0000;stroke:#ff0000;" x="84.656754" xlink:href="#m08a8515cb8" y="139.093892"/>
     <use style="fill:#ff0000;stroke:#ff0000;" x="87.34094" xlink:href="#m08a8515cb8" y="136.290331"/>
     <use style="fill:#ff0000;stroke:#ff0000;" x="87.463257" xlink:href="#m08a8515cb8" y="136.162837"/>
     <use style="fill:#ff0000;stroke:#ff0000;" x="90.025126" xlink:href="#m08a8515cb8" y="133.499852"/>
     <use style="fill:#ff0000;stroke:#ff0000;" x="92.709312" xlink:href="#m08a8515cb8" y="130.728954"/>
     <use style="fill:#ff0000;stroke:#ff0000;" x="95.393498" xlink:href="#m08a8515cb8" y="127.984096"/>
     <use style="fill:#ff0000;stroke:#ff0000;" x="96.93029" xlink:href="#m08a8515cb8" y="126.426761"/>
     <use style="fill:#ff0000;stroke:#ff0000;" x="98.077684" xlink:href="#m08a8515cb8" y="125.271673"/>
     <use style="fill:#ff0000;stroke:#ff0000;" x="100.761871" xlink:href="#m08a8515cb8" y="122.598004"/>
     <use style="fill:#ff0000;stroke:#ff0000;" x="103.446057" xlink:href="#m08a8515cb8" y="119.969321"/>
     <use style="fill:#ff0000;stroke:#ff0000;" x="106.130243" xlink:href="#m08a8515cb8" y="117.391748"/>
     <use style="fill:#ff0000;stroke:#ff0000;" x="107.575089" xlink:href="#m08a8515cb8" y="116.027558"/>
     <use style="fill:#ff0000;stroke:#ff0000;" x="108.814429" xlink:href="#m08a8515cb8" y="114.871291"/>
     <use style="fill:#ff0000;stroke:#ff0000;" x="111.498615" xlink:href="#m08a8515cb8" y="112.413823"/>
     <use style="fill:#ff0000;stroke:#ff0000;" x="114.182801" xlink:href="#m08a8515cb8" y="110.02507"/>
     <use style="fill:#ff0000;stroke:#ff0000;" x="116.664405" xlink:href="#m08a8515cb8" y="107.882564"/>
     <use style="fill:#ff0000;stroke:#ff0000;" x="116.866987" xlink:href="#m08a8515cb8" y="107.710599"/>
     <use style="fill:#ff0000;stroke:#ff0000;" x="118.056803" xlink:href="#m08a8515cb8" y="106.709838"/>
     <use style="fill:#ff0000;stroke:#ff0000;" x="119.551173" xlink:href="#m08a8515cb8" y="105.475801"/>
     <use style="fill:#ff0000;stroke:#ff0000;" x="122.235359" xlink:href="#m08a8515cb8" y="103.325886"/>
     <use style="fill:#ff0000;stroke:#ff0000;" x="124.919545" xlink:href="#m08a8515cb8" y="101.265861"/>
     <use style="fill:#ff0000;stroke:#ff0000;" x="127.603731" xlink:href="#m08a8515cb8" y="99.300528"/>
     <use style="fill:#ff0000;stroke:#ff0000;" x="130.287917" xlink:href="#m08a8515cb8" y="97.434465"/>
     <use style="fill:#ff0000;stroke:#ff0000;" x="132.972103" xlink:href="#m08a8515cb8" y="95.672022"/>
     <use style="fill:#ff0000;stroke:#ff0000;" x="135.656289" xlink:href="#m08a8515cb8" y="94.017303"/>
     <use style="fill:#ff0000;stroke:#ff0000;" x="138.340475" xlink:href="#m08a8515cb8" y="92.474166"/>
     <use style="fill:#ff0000;stroke:#ff0000;" x="141.024661" xlink:href="#m08a8515cb8" y="91.046205"/>
     <use style="fill:#ff0000;stroke:#ff0000;" x="143.708847" xlink:href="#m08a8515cb8" y="89.736748"/>
     <use style="fill:#ff0000;stroke:#ff0000;" x="146.393033" xlink:href="#m08a8515cb8" y="88.548847"/>
     <use style="fill:#ff0000;stroke:#ff0000;" x="146.494904" xlink:href="#m08a8515cb8" y="88.506196"/>
     <use style="fill:#ff0000;stroke:#ff0000;" x="149.077219" xlink:href="#m08a8515cb8" y="87.485269"/>
     <use style="fill:#ff0000;stroke:#ff0000;" x="151.761405" xlink:href="#m08a8515cb8" y="86.548492"/>
     <use style="fill:#ff0000;stroke:#ff0000;" x="154.445592" xlink:href="#m08a8515cb8" y="85.7407"/>
     <use style="fill:#ff0000;stroke:#ff0000;" x="157.129778" xlink:href="#m08a8515cb8" y="85.063774"/>
     <use style="fill:#ff0000;stroke:#ff0000;" x="159.813964" xlink:href="#m08a8515cb8" y="84.519291"/>
     <use style="fill:#ff0000;stroke:#ff0000;" x="170.03842" xlink:href="#m08a8515cb8" y="83.676992"/>
     <use style="fill:#ff0000;stroke:#ff0000;" x="170.564102" xlink:href="#m08a8515cb8" y="83.686802"/>
     <use style="fill:#ff0000;stroke:#ff0000;" x="189.727272" xlink:href="#m08a8515cb8" y="87.554032"/>
     <use style="fill:#ff0000;stroke:#ff0000;" x="211.591415" xlink:href="#m08a8515cb8" y="99.712848"/>
     <use style="fill:#ff0000;stroke:#ff0000;" x="221.332753" xlink:href="#m08a8515cb8" y="107.354612"/>
     <use style="fill:#ff0000;stroke:#ff0000;" x="223.311035" xlink:href="#m08a8515cb8" y="109.043954"/>
     <use style="fill:#ff0000;stroke:#ff0000;" x="224.236293" xlink:href="#m08a8515cb8" y="109.84848"/>
     <use style="fill:#ff0000;stroke:#ff0000;" x="233.175493" xlink:href="#m08a8515cb8" y="118.044269"/>
     <use style="fill:#ff0000;stroke:#ff0000;" x="241.451002" xlink:href="#m08a8515cb8" y="126.185067"/>
     <use style="fill:#ff0000;stroke:#ff0000;" x="250.440015" xlink:href="#m08a8515cb8" y="135.415496"/>
     <use style="fill:#ff0000;stroke:#ff0000;" x="276.304469" xlink:href="#m08a8515cb8" y="162.064201"/>
     <use style="fill:#ff0000;stroke:#ff0000;" x="279.047359" xlink:href="#m08a8515cb8" y="164.733615"/>
     <use style="fill:#ff0000;stroke:#ff0000;" x="299.136848" xlink:href="#m08a8515cb8" y="182.196922"/>
     <use style="fill:#ff0000;stroke:#ff0000;" x="308.169221" xlink:href="#m08a8515cb8" y="188.465982"/>
     <use style="fill:#ff0000;stroke:#ff0000;" x="320.362535" xlink:href="#m08a8515cb8" y="194.958572"/>
     <use style="fill:#ff0000;stroke:#ff0000;" x="329.895962" xlink:href="#m08a8515cb8" y="198.276179"/>
     <use style="fill:#ff0000;stroke:#ff0000;" x="333.58421" xlink:href="#m08a8515cb8" y="199.119931"/>
     <use style="fill:#ff0000;stroke:#ff0000;" x="335.395936" xlink:href="#m08a8515cb8" y="199.442407"/>
     <use style="fill:#ff0000;stroke:#ff0000;" x="357.625809" xlink:href="#m08a8515cb8" y="198.392595"/>
     <use style="fill:#ff0000;stroke:#ff0000;" x="389.718192" xlink:href="#m08a8515cb8" y="181.524326"/>
     <use style="fill:#ff0000;stroke:#ff0000;" x="393.438103" xlink:href="#m08a8515cb8" y="178.582671"/>
     <use style="fill:#ff0000;stroke:#ff0000;" x="401.217966" xlink:href="#m08a8515cb8" y="171.916283"/>
     <use style="fill:#ff0000;stroke:#ff0000;" x="420.992571" xlink:href="#m08a8515cb8" y="152.66208"/>
     <use style="fill:#ff0000;stroke:#ff0000;" x="438.537689" xlink:href="#m08a8515cb8" y="134.370073"/>
    </g>
   </g>
   <g id="patch_3">
    <path d="M 61.67 316.6 
L 61.67 25.44 
" style="fill:none;stroke:#000000;stroke-linecap:square;stroke-linejoin:miter;stroke-width:0.8;"/>
   </g>
   <g id="patch_4">
    <path d="M 490.68 316.6 
L 490.68 25.44 
" style="fill:none;stroke:#000000;stroke-linecap:square;stroke-linejoin:miter;stroke-width:0.8;"/>
   </g>
   <g id="patch_5">
    <path d="M 61.67 316.6 
L 490.68 316.6 
" style="fill:none;stroke:#000000;stroke-linecap:square;stroke-linejoin:miter;stroke-width:0.8;"/>
   </g>
   <g id="patch_6">
    <path d="M 61.67 25.44 
L 490.68 25.44 
" style="fill:none;stroke:#000000;stroke-linecap:square;stroke-linejoin:miter;stroke-width:0.8;"/>
   </g>
   <g id="text_15">
    <!-- Xs=Rand nc=6 C2 = 1e-2 width = 10  -->
    <defs>
     <path d="M 44.28125 53.078125 
L 44.28125 44.578125 
Q 40.484375 46.53125 36.375 47.5 
Q 32.28125 48.484375 27.875 48.484375 
Q 21.1875 48.484375 17.84375 46.4375 
Q 14.5 44.390625 14.5 40.28125 
Q 14.5 37.15625 16.890625 35.375 
Q 19.28125 33.59375 26.515625 31.984375 
L 29.59375 31.296875 
Q 39.15625 29.25 43.1875 25.515625 
Q 47.21875 21.78125 47.21875 15.09375 
Q 47.21875 7.46875 41.1875 3.015625 
Q 35.15625 -1.421875 24.609375 -1.421875 
Q 20.21875 -1.421875 15.453125 -0.5625 
Q 10.6875 0.296875 5.421875 2 
L 5.421875 11.28125 
Q 10.40625 8.6875 15.234375 7.390625 
Q 20.0625 6.109375 24.8125 6.109375 
Q 31.15625 6.109375 34.5625 8.28125 
Q 37.984375 10.453125 37.984375 14.40625 
Q 37.984375 18.0625 35.515625 20.015625 
Q 33.0625 21.96875 24.703125 23.78125 
L 21.578125 24.515625 
Q 13.234375 26.265625 9.515625 29.90625 
Q 5.8125 33.546875 5.8125 39.890625 
Q 5.8125 47.609375 11.28125 51.796875 
Q 16.75 56 26.8125 56 
Q 31.78125 56 36.171875 55.265625 
Q 40.578125 54.546875 44.28125 53.078125 
z
" id="DejaVuSans-73"/>
     <path d="M 10.59375 45.40625 
L 73.1875 45.40625 
L 73.1875 37.203125 
L 10.59375 37.203125 
z
M 10.59375 25.484375 
L 73.1875 25.484375 
L 73.1875 17.1875 
L 10.59375 17.1875 
z
" id="DejaVuSans-3d"/>
     <path d="M 44.390625 34.1875 
Q 47.5625 33.109375 50.5625 29.59375 
Q 53.5625 26.078125 56.59375 19.921875 
L 66.609375 0 
L 56 0 
L 46.6875 18.703125 
Q 43.0625 26.03125 39.671875 28.421875 
Q 36.28125 30.8125 30.421875 30.8125 
L 19.671875 30.8125 
L 19.671875 0 
L 9.8125 0 
L 9.8125 72.90625 
L 32.078125 72.90625 
Q 44.578125 72.90625 50.734375 67.671875 
Q 56.890625 62.453125 56.890625 51.90625 
Q 56.890625 45.015625 53.6875 40.46875 
Q 50.484375 35.9375 44.390625 34.1875 
z
M 19.671875 64.796875 
L 19.671875 38.921875 
L 32.078125 38.921875 
Q 39.203125 38.921875 42.84375 42.21875 
Q 46.484375 45.515625 46.484375 51.90625 
Q 46.484375 58.296875 42.84375 61.546875 
Q 39.203125 64.796875 32.078125 64.796875 
z
" id="DejaVuSans-52"/>
     <path d="M 34.28125 27.484375 
Q 23.390625 27.484375 19.1875 25 
Q 14.984375 22.515625 14.984375 16.5 
Q 14.984375 11.71875 18.140625 8.90625 
Q 21.296875 6.109375 26.703125 6.109375 
Q 34.1875 6.109375 38.703125 11.40625 
Q 43.21875 16.703125 43.21875 25.484375 
L 43.21875 27.484375 
z
M 52.203125 31.203125 
L 52.203125 0 
L 43.21875 0 
L 43.21875 8.296875 
Q 40.140625 3.328125 35.546875 0.953125 
Q 30.953125 -1.421875 24.3125 -1.421875 
Q 15.921875 -1.421875 10.953125 3.296875 
Q 6 8.015625 6 15.921875 
Q 6 25.140625 12.171875 29.828125 
Q 18.359375 34.515625 30.609375 34.515625 
L 43.21875 34.515625 
L 43.21875 35.40625 
Q 43.21875 41.609375 39.140625 45 
Q 35.0625 48.390625 27.6875 48.390625 
Q 23 48.390625 18.546875 47.265625 
Q 14.109375 46.140625 10.015625 43.890625 
L 10.015625 52.203125 
Q 14.9375 54.109375 19.578125 55.046875 
Q 24.21875 56 28.609375 56 
Q 40.484375 56 46.34375 49.84375 
Q 52.203125 43.703125 52.203125 31.203125 
z
" id="DejaVuSans-61"/>
     <path d="M 54.890625 33.015625 
L 54.890625 0 
L 45.90625 0 
L 45.90625 32.71875 
Q 45.90625 40.484375 42.875 44.328125 
Q 39.84375 48.1875 33.796875 48.1875 
Q 26.515625 48.1875 22.3125 43.546875 
Q 18.109375 38.921875 18.109375 30.90625 
L 18.109375 0 
L 9.078125 0 
L 9.078125 54.6875 
L 18.109375 54.6875 
L 18.109375 46.1875 
Q 21.34375 51.125 25.703125 53.5625 
Q 30.078125 56 35.796875 56 
Q 45.21875 56 50.046875 50.171875 
Q 54.890625 44.34375 54.890625 33.015625 
z
" id="DejaVuSans-6e"/>
     <path d="M 45.40625 46.390625 
L 45.40625 75.984375 
L 54.390625 75.984375 
L 54.390625 0 
L 45.40625 0 
L 45.40625 8.203125 
Q 42.578125 3.328125 38.25 0.953125 
Q 33.9375 -1.421875 27.875 -1.421875 
Q 17.96875 -1.421875 11.734375 6.484375 
Q 5.515625 14.40625 5.515625 27.296875 
Q 5.515625 40.1875 11.734375 48.09375 
Q 17.96875 56 27.875 56 
Q 33.9375 56 38.25 53.625 
Q 42.578125 51.265625 45.40625 46.390625 
z
M 14.796875 27.296875 
Q 14.796875 17.390625 18.875 11.75 
Q 22.953125 6.109375 30.078125 6.109375 
Q 37.203125 6.109375 41.296875 11.75 
Q 45.40625 17.390625 45.40625 27.296875 
Q 45.40625 37.203125 41.296875 42.84375 
Q 37.203125 48.484375 30.078125 48.484375 
Q 22.953125 48.484375 18.875 42.84375 
Q 14.796875 37.203125 14.796875 27.296875 
z
" id="DejaVuSans-64"/>
     <path id="DejaVuSans-20"/>
     <path d="M 48.78125 52.59375 
L 48.78125 44.1875 
Q 44.96875 46.296875 41.140625 47.34375 
Q 37.3125 48.390625 33.40625 48.390625 
Q 24.65625 48.390625 19.8125 42.84375 
Q 14.984375 37.3125 14.984375 27.296875 
Q 14.984375 17.28125 19.8125 11.734375 
Q 24.65625 6.203125 33.40625 6.203125 
Q 37.3125 6.203125 41.140625 7.25 
Q 44.96875 8.296875 48.78125 10.40625 
L 48.78125 2.09375 
Q 45.015625 0.34375 40.984375 -0.53125 
Q 36.96875 -1.421875 32.421875 -1.421875 
Q 20.0625 -1.421875 12.78125 6.34375 
Q 5.515625 14.109375 5.515625 27.296875 
Q 5.515625 40.671875 12.859375 48.328125 
Q 20.21875 56 33.015625 56 
Q 37.15625 56 41.109375 55.140625 
Q 45.0625 54.296875 48.78125 52.59375 
z
" id="DejaVuSans-63"/>
     <path d="M 64.40625 67.28125 
L 64.40625 56.890625 
Q 59.421875 61.53125 53.78125 63.8125 
Q 48.140625 66.109375 41.796875 66.109375 
Q 29.296875 66.109375 22.65625 58.46875 
Q 16.015625 50.828125 16.015625 36.375 
Q 16.015625 21.96875 22.65625 14.328125 
Q 29.296875 6.6875 41.796875 6.6875 
Q 48.140625 6.6875 53.78125 8.984375 
Q 59.421875 11.28125 64.40625 15.921875 
L 64.40625 5.609375 
Q 59.234375 2.09375 53.4375 0.328125 
Q 47.65625 -1.421875 41.21875 -1.421875 
Q 24.65625 -1.421875 15.125 8.703125 
Q 5.609375 18.84375 5.609375 36.375 
Q 5.609375 53.953125 15.125 64.078125 
Q 24.65625 74.21875 41.21875 74.21875 
Q 47.75 74.21875 53.53125 72.484375 
Q 59.328125 70.75 64.40625 67.28125 
z
" id="DejaVuSans-43"/>
     <path d="M 56.203125 29.59375 
L 56.203125 25.203125 
L 14.890625 25.203125 
Q 15.484375 15.921875 20.484375 11.0625 
Q 25.484375 6.203125 34.421875 6.203125 
Q 39.59375 6.203125 44.453125 7.46875 
Q 49.3125 8.734375 54.109375 11.28125 
L 54.109375 2.78125 
Q 49.265625 0.734375 44.1875 -0.34375 
Q 39.109375 -1.421875 33.890625 -1.421875 
Q 20.796875 -1.421875 13.15625 6.1875 
Q 5.515625 13.8125 5.515625 26.8125 
Q 5.515625 40.234375 12.765625 48.109375 
Q 20.015625 56 32.328125 56 
Q 43.359375 56 49.78125 48.890625 
Q 56.203125 41.796875 56.203125 29.59375 
z
M 47.21875 32.234375 
Q 47.125 39.59375 43.09375 43.984375 
Q 39.0625 48.390625 32.421875 48.390625 
Q 24.90625 48.390625 20.390625 44.140625 
Q 15.875 39.890625 15.1875 32.171875 
z
" id="DejaVuSans-65"/>
     <path d="M 4.890625 31.390625 
L 31.203125 31.390625 
L 31.203125 23.390625 
L 4.890625 23.390625 
z
" id="DejaVuSans-2d"/>
     <path d="M 4.203125 54.6875 
L 13.1875 54.6875 
L 24.421875 12.015625 
L 35.59375 54.6875 
L 46.1875 54.6875 
L 57.421875 12.015625 
L 68.609375 54.6875 
L 77.59375 54.6875 
L 63.28125 0 
L 52.6875 0 
L 40.921875 44.828125 
L 29.109375 0 
L 18.5 0 
z
" id="DejaVuSans-77"/>
     <path d="M 9.421875 54.6875 
L 18.40625 54.6875 
L 18.40625 0 
L 9.421875 0 
z
M 9.421875 75.984375 
L 18.40625 75.984375 
L 18.40625 64.59375 
L 9.421875 64.59375 
z
" id="DejaVuSans-69"/>
     <path d="M 18.3125 70.21875 
L 18.3125 54.6875 
L 36.8125 54.6875 
L 36.8125 47.703125 
L 18.3125 47.703125 
L 18.3125 18.015625 
Q 18.3125 11.328125 20.140625 9.421875 
Q 21.96875 7.515625 27.59375 7.515625 
L 36.8125 7.515625 
L 36.8125 0 
L 27.59375 0 
Q 17.1875 0 13.234375 3.875 
Q 9.28125 7.765625 9.28125 18.015625 
L 9.28125 47.703125 
L 2.6875 47.703125 
L 2.6875 54.6875 
L 9.28125 54.6875 
L 9.28125 70.21875 
z
" id="DejaVuSans-74"/>
     <path d="M 54.890625 33.015625 
L 54.890625 0 
L 45.90625 0 
L 45.90625 32.71875 
Q 45.90625 40.484375 42.875 44.328125 
Q 39.84375 48.1875 33.796875 48.1875 
Q 26.515625 48.1875 22.3125 43.546875 
Q 18.109375 38.921875 18.109375 30.90625 
L 18.109375 0 
L 9.078125 0 
L 9.078125 75.984375 
L 18.109375 75.984375 
L 18.109375 46.1875 
Q 21.34375 51.125 25.703125 53.5625 
Q 30.078125 56 35.796875 56 
Q 45.21875 56 50.046875 50.171875 
Q 54.890625 44.34375 54.890625 33.015625 
z
" id="DejaVuSans-68"/>
    </defs>
    <g transform="translate(161.527188 19.44)scale(0.12 -0.12)">
     <use xlink:href="#DejaVuSans-58"/>
     <use x="68.505859" xlink:href="#DejaVuSans-73"/>
     <use x="120.605469" xlink:href="#DejaVuSans-3d"/>
     <use x="204.394531" xlink:href="#DejaVuSans-52"/>
     <use x="273.845703" xlink:href="#DejaVuSans-61"/>
     <use x="335.125" xlink:href="#DejaVuSans-6e"/>
     <use x="398.503906" xlink:href="#DejaVuSans-64"/>
     <use x="461.980469" xlink:href="#DejaVuSans-20"/>
     <use x="493.767578" xlink:href="#DejaVuSans-6e"/>
     <use x="557.146484" xlink:href="#DejaVuSans-63"/>
     <use x="612.126953" xlink:href="#DejaVuSans-3d"/>
     <use x="695.916016" xlink:href="#DejaVuSans-36"/>
     <use x="759.539062" xlink:href="#DejaVuSans-20"/>
     <use x="791.326172" xlink:href="#DejaVuSans-43"/>
     <use x="861.150391" xlink:href="#DejaVuSans-32"/>
     <use x="924.773438" xlink:href="#DejaVuSans-20"/>
     <use x="956.560547" xlink:href="#DejaVuSans-3d"/>
     <use x="1040.349609" xlink:href="#DejaVuSans-20"/>
     <use x="1072.136719" xlink:href="#DejaVuSans-31"/>
     <use x="1135.759766" xlink:href="#DejaVuSans-65"/>
     <use x="1197.283203" xlink:href="#DejaVuSans-2d"/>
     <use x="1233.367188" xlink:href="#DejaVuSans-32"/>
     <use x="1296.990234" xlink:href="#DejaVuSans-20"/>
     <use x="1328.777344" xlink:href="#DejaVuSans-77"/>
     <use x="1410.564453" xlink:href="#DejaVuSans-69"/>
     <use x="1438.347656" xlink:href="#DejaVuSans-64"/>
     <use x="1501.824219" xlink:href="#DejaVuSans-74"/>
     <use x="1541.033203" xlink:href="#DejaVuSans-68"/>
     <use x="1604.412109" xlink:href="#DejaVuSans-20"/>
     <use x="1636.199219" xlink:href="#DejaVuSans-3d"/>
     <use x="1719.988281" xlink:href="#DejaVuSans-20"/>
     <use x="1751.775391" xlink:href="#DejaVuSans-31"/>
     <use x="1815.398438" xlink:href="#DejaVuSans-30"/>
     <use x="1879.021484" xlink:href="#DejaVuSans-20"/>
    </g>
   </g>
   <g id="legend_1">
    <g id="patch_7">
     <path d="M 70.07 310.6 
L 191.1275 310.6 
Q 193.5275 310.6 193.5275 308.2 
L 193.5275 221.33125 
Q 193.5275 218.93125 191.1275 218.93125 
L 70.07 218.93125 
Q 67.67 218.93125 67.67 221.33125 
L 67.67 308.2 
Q 67.67 310.6 70.07 310.6 
z
" style="fill:#ffffff;opacity:0.8;stroke:#cccccc;stroke-linejoin:miter;"/>
    </g>
    <g id="line2d_14">
     <path d="M 72.47 228.649375 
L 96.47 228.649375 
" style="fill:none;stroke:#800080;stroke-linecap:square;stroke-width:2;"/>
    </g>
    <g id="line2d_15"/>
    <g id="text_16">
     <!-- Method A -->
     <defs>
      <path d="M 9.8125 72.90625 
L 24.515625 72.90625 
L 43.109375 23.296875 
L 61.8125 72.90625 
L 76.515625 72.90625 
L 76.515625 0 
L 66.890625 0 
L 66.890625 64.015625 
L 48.09375 14.015625 
L 38.1875 14.015625 
L 19.390625 64.015625 
L 19.390625 0 
L 9.8125 0 
z
" id="DejaVuSans-4d"/>
      <path d="M 30.609375 48.390625 
Q 23.390625 48.390625 19.1875 42.75 
Q 14.984375 37.109375 14.984375 27.296875 
Q 14.984375 17.484375 19.15625 11.84375 
Q 23.34375 6.203125 30.609375 6.203125 
Q 37.796875 6.203125 41.984375 11.859375 
Q 46.1875 17.53125 46.1875 27.296875 
Q 46.1875 37.015625 41.984375 42.703125 
Q 37.796875 48.390625 30.609375 48.390625 
z
M 30.609375 56 
Q 42.328125 56 49.015625 48.375 
Q 55.71875 40.765625 55.71875 27.296875 
Q 55.71875 13.875 49.015625 6.21875 
Q 42.328125 -1.421875 30.609375 -1.421875 
Q 18.84375 -1.421875 12.171875 6.21875 
Q 5.515625 13.875 5.515625 27.296875 
Q 5.515625 40.765625 12.171875 48.375 
Q 18.84375 56 30.609375 56 
z
" id="DejaVuSans-6f"/>
      <path d="M 34.1875 63.1875 
L 20.796875 26.90625 
L 47.609375 26.90625 
z
M 28.609375 72.90625 
L 39.796875 72.90625 
L 67.578125 0 
L 57.328125 0 
L 50.6875 18.703125 
L 17.828125 18.703125 
L 11.1875 0 
L 0.78125 0 
z
" id="DejaVuSans-41"/>
     </defs>
     <g transform="translate(106.07 232.849375)scale(0.12 -0.12)">
      <use xlink:href="#DejaVuSans-4d"/>
      <use x="86.279297" xlink:href="#DejaVuSans-65"/>
      <use x="147.802734" xlink:href="#DejaVuSans-74"/>
      <use x="187.011719" xlink:href="#DejaVuSans-68"/>
      <use x="250.390625" xlink:href="#DejaVuSans-6f"/>
      <use x="311.572266" xlink:href="#DejaVuSans-64"/>
      <use x="375.048828" xlink:href="#DejaVuSans-20"/>
      <use x="406.835938" xlink:href="#DejaVuSans-41"/>
     </g>
    </g>
    <g id="line2d_16">
     <path d="M 72.47 246.263125 
L 96.47 246.263125 
" style="fill:none;stroke:#008000;stroke-linecap:square;stroke-width:2;"/>
    </g>
    <g id="line2d_17"/>
    <g id="text_17">
     <!-- Method B -->
     <defs>
      <path d="M 19.671875 34.8125 
L 19.671875 8.109375 
L 35.5 8.109375 
Q 43.453125 8.109375 47.28125 11.40625 
Q 51.125 14.703125 51.125 21.484375 
Q 51.125 28.328125 47.28125 31.5625 
Q 43.453125 34.8125 35.5 34.8125 
z
M 19.671875 64.796875 
L 19.671875 42.828125 
L 34.28125 42.828125 
Q 41.5 42.828125 45.03125 45.53125 
Q 48.578125 48.25 48.578125 53.8125 
Q 48.578125 59.328125 45.03125 62.0625 
Q 41.5 64.796875 34.28125 64.796875 
z
M 9.8125 72.90625 
L 35.015625 72.90625 
Q 46.296875 72.90625 52.390625 68.21875 
Q 58.5 63.53125 58.5 54.890625 
Q 58.5 48.1875 55.375 44.234375 
Q 52.25 40.28125 46.1875 39.3125 
Q 53.46875 37.75 57.5 32.78125 
Q 61.53125 27.828125 61.53125 20.40625 
Q 61.53125 10.640625 54.890625 5.3125 
Q 48.25 0 35.984375 0 
L 9.8125 0 
z
" id="DejaVuSans-42"/>
     </defs>
     <g transform="translate(106.07 250.463125)scale(0.12 -0.12)">
      <use xlink:href="#DejaVuSans-4d"/>
      <use x="86.279297" xlink:href="#DejaVuSans-65"/>
      <use x="147.802734" xlink:href="#DejaVuSans-74"/>
      <use x="187.011719" xlink:href="#DejaVuSans-68"/>
      <use x="250.390625" xlink:href="#DejaVuSans-6f"/>
      <use x="311.572266" xlink:href="#DejaVuSans-64"/>
      <use x="375.048828" xlink:href="#DejaVuSans-20"/>
      <use x="406.835938" xlink:href="#DejaVuSans-42"/>
     </g>
    </g>
    <g id="line2d_18">
     <path d="M 72.47 263.876875 
L 96.47 263.876875 
" style="fill:none;stroke:#bfbf00;stroke-linecap:square;stroke-width:2;"/>
    </g>
    <g id="line2d_19"/>
    <g id="text_18">
     <!-- Method C -->
     <g transform="translate(106.07 268.076875)scale(0.12 -0.12)">
      <use xlink:href="#DejaVuSans-4d"/>
      <use x="86.279297" xlink:href="#DejaVuSans-65"/>
      <use x="147.802734" xlink:href="#DejaVuSans-74"/>
      <use x="187.011719" xlink:href="#DejaVuSans-68"/>
      <use x="250.390625" xlink:href="#DejaVuSans-6f"/>
      <use x="311.572266" xlink:href="#DejaVuSans-64"/>
      <use x="375.048828" xlink:href="#DejaVuSans-20"/>
      <use x="406.835938" xlink:href="#DejaVuSans-43"/>
     </g>
    </g>
    <g id="line2d_20"/>
    <g id="line2d_21">
     <g>
      <use style="fill:#ff0000;stroke:#ff0000;" x="84.47" xlink:href="#m08a8515cb8" y="281.490625"/>
     </g>
    </g>
    <g id="text_19">
     <!-- Source model -->
     <defs>
      <path d="M 53.515625 70.515625 
L 53.515625 60.890625 
Q 47.90625 63.578125 42.921875 64.890625 
Q 37.9375 66.21875 33.296875 66.21875 
Q 25.25 66.21875 20.875 63.09375 
Q 16.5 59.96875 16.5 54.203125 
Q 16.5 49.359375 19.40625 46.890625 
Q 22.3125 44.4375 30.421875 42.921875 
L 36.375 41.703125 
Q 47.40625 39.59375 52.65625 34.296875 
Q 57.90625 29 57.90625 20.125 
Q 57.90625 9.515625 50.796875 4.046875 
Q 43.703125 -1.421875 29.984375 -1.421875 
Q 24.8125 -1.421875 18.96875 -0.25 
Q 13.140625 0.921875 6.890625 3.21875 
L 6.890625 13.375 
Q 12.890625 10.015625 18.65625 8.296875 
Q 24.421875 6.59375 29.984375 6.59375 
Q 38.421875 6.59375 43.015625 9.90625 
Q 47.609375 13.234375 47.609375 19.390625 
Q 47.609375 24.75 44.3125 27.78125 
Q 41.015625 30.8125 33.5 32.328125 
L 27.484375 33.5 
Q 16.453125 35.6875 11.515625 40.375 
Q 6.59375 45.0625 6.59375 53.421875 
Q 6.59375 63.09375 13.40625 68.65625 
Q 20.21875 74.21875 32.171875 74.21875 
Q 37.3125 74.21875 42.625 73.28125 
Q 47.953125 72.359375 53.515625 70.515625 
z
" id="DejaVuSans-53"/>
      <path d="M 8.5 21.578125 
L 8.5 54.6875 
L 17.484375 54.6875 
L 17.484375 21.921875 
Q 17.484375 14.15625 20.5 10.265625 
Q 23.53125 6.390625 29.59375 6.390625 
Q 36.859375 6.390625 41.078125 11.03125 
Q 45.3125 15.671875 45.3125 23.6875 
L 45.3125 54.6875 
L 54.296875 54.6875 
L 54.296875 0 
L 45.3125 0 
L 45.3125 8.40625 
Q 42.046875 3.421875 37.71875 1 
Q 33.40625 -1.421875 27.6875 -1.421875 
Q 18.265625 -1.421875 13.375 4.4375 
Q 8.5 10.296875 8.5 21.578125 
z
M 31.109375 56 
z
" id="DejaVuSans-75"/>
      <path d="M 41.109375 46.296875 
Q 39.59375 47.171875 37.8125 47.578125 
Q 36.03125 48 33.890625 48 
Q 26.265625 48 22.1875 43.046875 
Q 18.109375 38.09375 18.109375 28.8125 
L 18.109375 0 
L 9.078125 0 
L 9.078125 54.6875 
L 18.109375 54.6875 
L 18.109375 46.1875 
Q 20.953125 51.171875 25.484375 53.578125 
Q 30.03125 56 36.53125 56 
Q 37.453125 56 38.578125 55.875 
Q 39.703125 55.765625 41.0625 55.515625 
z
" id="DejaVuSans-72"/>
      <path d="M 52 44.1875 
Q 55.375 50.25 60.0625 53.125 
Q 64.75 56 71.09375 56 
Q 79.640625 56 84.28125 50.015625 
Q 88.921875 44.046875 88.921875 33.015625 
L 88.921875 0 
L 79.890625 0 
L 79.890625 32.71875 
Q 79.890625 40.578125 77.09375 44.375 
Q 74.3125 48.1875 68.609375 48.1875 
Q 61.625 48.1875 57.5625 43.546875 
Q 53.515625 38.921875 53.515625 30.90625 
L 53.515625 0 
L 44.484375 0 
L 44.484375 32.71875 
Q 44.484375 40.625 41.703125 44.40625 
Q 38.921875 48.1875 33.109375 48.1875 
Q 26.21875 48.1875 22.15625 43.53125 
Q 18.109375 38.875 18.109375 30.90625 
L 18.109375 0 
L 9.078125 0 
L 9.078125 54.6875 
L 18.109375 54.6875 
L 18.109375 46.1875 
Q 21.1875 51.21875 25.484375 53.609375 
Q 29.78125 56 35.6875 56 
Q 41.65625 56 45.828125 52.96875 
Q 50 49.953125 52 44.1875 
z
" id="DejaVuSans-6d"/>
      <path d="M 9.421875 75.984375 
L 18.40625 75.984375 
L 18.40625 0 
L 9.421875 0 
z
" id="DejaVuSans-6c"/>
     </defs>
     <g transform="translate(106.07 285.690625)scale(0.12 -0.12)">
      <use xlink:href="#DejaVuSans-53"/>
      <use x="63.476562" xlink:href="#DejaVuSans-6f"/>
      <use x="124.658203" xlink:href="#DejaVuSans-75"/>
      <use x="188.037109" xlink:href="#DejaVuSans-72"/>
      <use x="229.119141" xlink:href="#DejaVuSans-63"/>
      <use x="284.099609" xlink:href="#DejaVuSans-65"/>
      <use x="345.623047" xlink:href="#DejaVuSans-20"/>
      <use x="377.410156" xlink:href="#DejaVuSans-6d"/>
      <use x="474.822266" xlink:href="#DejaVuSans-6f"/>
      <use x="536.003906" xlink:href="#DejaVuSans-64"/>
      <use x="599.480469" xlink:href="#DejaVuSans-65"/>
      <use x="661.003906" xlink:href="#DejaVuSans-6c"/>
     </g>
    </g>
    <g id="PathCollection_8">
     <g>
      <use style="fill:#0000ff;stroke:#0000ff;" x="84.47" xlink:href="#mef95e3c3ac" y="300.154375"/>
     </g>
    </g>
    <g id="text_20">
     <!-- Target Data -->
     <defs>
      <path d="M -0.296875 72.90625 
L 61.375 72.90625 
L 61.375 64.59375 
L 35.5 64.59375 
L 35.5 0 
L 25.59375 0 
L 25.59375 64.59375 
L -0.296875 64.59375 
z
" id="DejaVuSans-54"/>
      <path d="M 45.40625 27.984375 
Q 45.40625 37.75 41.375 43.109375 
Q 37.359375 48.484375 30.078125 48.484375 
Q 22.859375 48.484375 18.828125 43.109375 
Q 14.796875 37.75 14.796875 27.984375 
Q 14.796875 18.265625 18.828125 12.890625 
Q 22.859375 7.515625 30.078125 7.515625 
Q 37.359375 7.515625 41.375 12.890625 
Q 45.40625 18.265625 45.40625 27.984375 
z
M 54.390625 6.78125 
Q 54.390625 -7.171875 48.1875 -13.984375 
Q 42 -20.796875 29.203125 -20.796875 
Q 24.46875 -20.796875 20.265625 -20.09375 
Q 16.0625 -19.390625 12.109375 -17.921875 
L 12.109375 -9.1875 
Q 16.0625 -11.328125 19.921875 -12.34375 
Q 23.78125 -13.375 27.78125 -13.375 
Q 36.625 -13.375 41.015625 -8.765625 
Q 45.40625 -4.15625 45.40625 5.171875 
L 45.40625 9.625 
Q 42.625 4.78125 38.28125 2.390625 
Q 33.9375 0 27.875 0 
Q 17.828125 0 11.671875 7.65625 
Q 5.515625 15.328125 5.515625 27.984375 
Q 5.515625 40.671875 11.671875 48.328125 
Q 17.828125 56 27.875 56 
Q 33.9375 56 38.28125 53.609375 
Q 42.625 51.21875 45.40625 46.390625 
L 45.40625 54.6875 
L 54.390625 54.6875 
z
" id="DejaVuSans-67"/>
      <path d="M 19.671875 64.796875 
L 19.671875 8.109375 
L 31.59375 8.109375 
Q 46.6875 8.109375 53.6875 14.9375 
Q 60.6875 21.78125 60.6875 36.53125 
Q 60.6875 51.171875 53.6875 57.984375 
Q 46.6875 64.796875 31.59375 64.796875 
z
M 9.8125 72.90625 
L 30.078125 72.90625 
Q 51.265625 72.90625 61.171875 64.09375 
Q 71.09375 55.28125 71.09375 36.53125 
Q 71.09375 17.671875 61.125 8.828125 
Q 51.171875 0 30.078125 0 
L 9.8125 0 
z
" id="DejaVuSans-44"/>
     </defs>
     <g transform="translate(106.07 303.304375)scale(0.12 -0.12)">
      <use xlink:href="#DejaVuSans-54"/>
      <use x="60.833984" xlink:href="#DejaVuSans-61"/>
      <use x="122.113281" xlink:href="#DejaVuSans-72"/>
      <use x="163.210938" xlink:href="#DejaVuSans-67"/>
      <use x="226.6875" xlink:href="#DejaVuSans-65"/>
      <use x="288.210938" xlink:href="#DejaVuSans-74"/>
      <use x="327.419922" xlink:href="#DejaVuSans-20"/>
      <use x="359.207031" xlink:href="#DejaVuSans-44"/>
      <use x="436.208984" xlink:href="#DejaVuSans-61"/>
      <use x="497.488281" xlink:href="#DejaVuSans-74"/>
      <use x="536.697266" xlink:href="#DejaVuSans-61"/>
     </g>
    </g>
   </g>
   <g id="line2d_22">
    <path clip-path="url(#pbc53590510)" d="M 81.972568 141.61978 
L 85.903952 137.634166 
L 89.835335 133.661096 
L 93.766719 129.722435 
L 97.698103 125.841058 
L 101.629486 122.040892 
L 105.56087 118.347003 
L 109.492253 114.785727 
L 113.423637 111.384866 
L 117.355021 108.173945 
L 121.286404 105.184505 
L 125.217788 102.450437 
L 129.149171 100.008303 
L 133.080555 97.897583 
L 137.011939 96.16077 
L 140.943322 94.843185 
L 144.874706 93.992334 
L 148.80609 93.656639 
L 152.737473 93.883291 
L 156.668857 94.715076 
L 160.60024 96.186065 
L 164.531624 98.316358 
L 168.463008 101.106372 
L 172.394391 104.53166 
L 176.325775 108.539554 
L 180.257158 113.049047 
L 184.188542 117.95483 
L 188.119926 123.135467 
L 192.051309 128.464422 
L 195.982693 133.821709 
L 199.914076 139.103691 
L 203.84546 144.229211 
L 207.776844 149.141435 
L 211.708227 153.805991 
L 215.639611 158.206739 
L 219.570994 162.340703 
L 223.502378 166.213389 
L 227.433762 169.835252 
L 231.365145 173.219565 
L 235.296529 176.381569 
L 239.227913 179.338524 
L 243.159296 182.11017 
L 247.09068 184.719104 
L 251.022063 187.190667 
L 254.953447 189.552121 
L 258.884831 191.831138 
L 262.816214 194.053814 
L 266.747598 196.242595 
L 270.678981 198.414512 
L 274.610365 200.580038 
L 278.541749 202.742707 
L 282.473132 204.899477 
L 286.404516 207.041668 
L 290.335899 209.156236 
L 294.267283 211.227155 
L 298.198667 213.236723 
L 302.13005 215.166675 
L 306.061434 216.999051 
L 309.992817 218.716829 
L 313.924201 220.304364 
L 317.855585 221.747679 
L 321.786968 223.034667 
L 325.718352 224.155217 
L 329.649736 225.101285 
L 333.581119 225.866889 
L 337.512503 226.447985 
L 341.443886 226.842162 
L 345.37527 227.048126 
L 349.306654 227.064922 
L 353.238037 226.890925 
L 357.169421 226.522726 
L 361.100804 225.954112 
L 365.032188 225.175488 
L 368.963572 224.174055 
L 372.894955 222.93498 
L 376.826339 221.443528 
L 380.757722 219.687798 
L 384.689106 217.661443 
L 388.62049 215.365744 
L 392.551873 212.810572 
L 396.483257 210.014177 
L 400.41464 207.002006 
L 404.346024 203.804985 
L 408.277408 200.457673 
L 412.208791 196.996579 
L 416.140175 193.458816 
L 420.071559 189.881109 
L 424.002942 186.299126 
L 427.934326 182.74704 
L 431.865709 179.257271 
L 435.797093 175.860317 
L 439.728477 172.584648 
L 443.65986 169.456624 
L 447.591244 166.500426 
L 451.522627 163.737985 
L 455.454011 161.18892 
L 459.385395 158.870472 
L 463.316778 156.797453 
L 467.248162 154.982198 
L 471.179545 153.434538 
" style="fill:none;stroke:#800080;stroke-linecap:square;stroke-width:2;"/>
   </g>
   <g id="line2d_23">
    <path clip-path="url(#pbc53590510)" d="M 81.972568 207.967997 
L 85.903952 203.963176 
L 89.835335 199.964636 
L 93.766719 195.99216 
L 97.698103 192.065878 
L 101.629486 188.206094 
L 105.56087 184.433126 
L 109.492253 180.767136 
L 113.423637 177.227964 
L 117.355021 173.834962 
L 121.286404 170.606829 
L 125.217788 167.561462 
L 129.149171 164.7158 
L 133.080555 162.085685 
L 137.011939 159.685731 
L 140.943322 157.529192 
L 144.874706 155.627847 
L 148.80609 153.991886 
L 152.737473 152.629791 
L 156.668857 151.548226 
L 160.60024 150.751909 
L 164.531624 150.24349 
L 168.463008 150.023409 
L 172.394391 150.089761 
L 176.325775 150.43817 
L 180.257158 151.061686 
L 184.188542 151.950717 
L 188.119926 153.093012 
L 192.051309 154.473683 
L 195.982693 156.075265 
L 199.914076 157.877808 
L 203.84546 159.858997 
L 207.776844 161.994328 
L 211.708227 164.257369 
L 215.639611 166.620175 
L 219.570994 169.053904 
L 223.502378 171.529683 
L 227.433762 174.01974 
L 231.365145 176.498762 
L 235.296529 178.945366 
L 239.227913 181.34351 
L 243.159296 183.683588 
L 247.09068 185.962953 
L 251.022063 188.185654 
L 254.953447 190.361301 
L 258.884831 192.503167 
L 262.816214 194.625791 
L 266.747598 196.742492 
L 270.678981 198.863214 
L 274.610365 200.993014 
L 278.541749 203.13135 
L 282.473132 205.272152 
L 286.404516 207.404511 
L 290.335899 209.513742 
L 294.267283 211.582612 
L 298.198667 213.592518 
L 302.13005 215.524507 
L 306.061434 217.360082 
L 309.992817 219.081791 
L 313.924201 220.673636 
L 317.855585 222.121348 
L 321.786968 223.412568 
L 325.718352 224.536976 
L 329.649736 225.48635 
L 333.581119 226.254556 
L 337.512503 226.837422 
L 341.443886 227.232437 
L 345.37527 227.438229 
L 349.306654 227.453794 
L 353.238037 227.277496 
L 357.169421 226.905953 
L 361.100804 226.333036 
L 365.032188 225.549286 
L 368.963572 224.54209 
L 372.894955 223.296845 
L 376.826339 221.79907 
L 380.757722 220.037113 
L 384.689106 218.004849 
L 388.62049 215.703732 
L 392.551873 213.143748 
L 396.483257 210.3432 
L 400.41464 207.327537 
L 404.346024 204.127649 
L 408.277408 200.77803 
L 412.208791 197.315114 
L 416.140175 193.775937 
L 420.071559 190.197148 
L 424.002942 186.614347 
L 427.934326 183.061651 
L 431.865709 179.571432 
L 435.797093 176.17415 
L 439.728477 172.898243 
L 443.65986 169.770049 
L 447.591244 166.81373 
L 451.522627 164.051204 
L 455.454011 161.50208 
L 459.385395 159.183591 
L 463.316778 157.110544 
L 467.248162 155.295269 
L 471.179545 153.747597 
" style="fill:none;stroke:#008000;stroke-linecap:square;stroke-width:2;"/>
   </g>
   <g id="line2d_24">
    <path clip-path="url(#pbc53590510)" d="M 81.972568 212.754534 
L 85.903952 209.841733 
L 89.835335 207.047579 
L 93.766719 204.398143 
L 97.698103 201.918283 
L 101.629486 199.630759 
L 105.56087 197.555213 
L 109.492253 195.707051 
L 113.423637 194.096294 
L 117.355021 192.726448 
L 121.286404 191.593535 
L 125.217788 190.685373 
L 129.149171 189.981253 
L 133.080555 189.452113 
L 137.011939 189.061284 
L 140.943322 188.76585 
L 144.874706 188.518595 
L 148.80609 188.270487 
L 152.737473 187.973664 
L 156.668857 187.584829 
L 160.60024 187.068983 
L 164.531624 186.403315 
L 168.463008 185.580916 
L 172.394391 184.613719 
L 176.325775 183.533866 
L 180.257158 182.392671 
L 184.188542 181.256616 
L 188.119926 180.200502 
L 192.051309 179.298703 
L 195.982693 178.616148 
L 199.914076 178.200794 
L 203.84546 178.07894 
L 207.776844 178.253891 
L 211.708227 178.707649 
L 215.639611 179.404789 
L 219.570994 180.297552 
L 223.502378 181.331335 
L 227.433762 182.450039 
L 231.365145 183.600989 
L 235.296529 184.739205 
L 239.227913 185.830867 
L 243.159296 186.855707 
L 247.09068 187.808047 
L 251.022063 188.696279 
L 254.953447 189.540718 
L 258.884831 190.370076 
L 262.816214 191.21706 
L 266.747598 192.113794 
L 270.678981 193.0878 
L 274.610365 194.159072 
L 278.541749 195.338534 
L 282.473132 196.627856 
L 286.404516 198.020364 
L 290.335899 199.502669 
L 294.267283 201.056634 
L 298.198667 202.661357 
L 302.13005 204.294963 
L 306.061434 205.936103 
L 309.992817 207.565128 
L 313.924201 209.164977 
L 317.855585 210.72181 
L 321.786968 212.225443 
L 325.718352 213.669582 
L 329.649736 215.051836 
L 333.581119 216.373436 
L 337.512503 217.638571 
L 341.443886 218.853176 
L 345.37527 220.023102 
L 349.306654 221.151573 
L 353.238037 222.236082 
L 357.169421 223.265041 
L 361.100804 224.214869 
L 365.032188 225.048397 
L 368.963572 225.715538 
L 372.894955 226.156814 
L 376.826339 226.309592 
L 380.757722 226.115962 
L 384.689106 225.530516 
L 388.62049 224.526196 
L 392.551873 223.097041 
L 396.483257 221.257602 
L 400.41464 219.039768 
L 404.346024 216.488161 
L 408.277408 213.65528 
L 412.208791 210.597225 
L 416.140175 207.3704 
L 420.071559 204.029277 
L 424.002942 200.625055 
L 427.934326 197.205009 
L 431.865709 193.812279 
L 435.797093 190.485935 
L 439.728477 187.261163 
L 443.65986 184.169497 
L 447.591244 181.239044 
L 451.522627 178.49468 
L 455.454011 175.958202 
L 459.385395 173.648447 
L 463.316778 171.581383 
L 467.248162 169.770175 
L 471.179545 168.225243 
" style="fill:none;stroke:#bfbf00;stroke-linecap:square;stroke-width:2;"/>
   </g>
  </g>
 </g>
 <defs>
  <clipPath id="pbc53590510">
   <rect height="291.16" width="429.01" x="61.67" y="25.44"/>
  </clipPath>
 </defs>
</svg>
